<?xml version="1.0" encoding="UTF-8"?>
<svg version="1.1" xmlns="http://www.w3.org/2000/svg" width="512" height="512">
<path d="M0 0 C0.76691162 0.01208496 1.53382324 0.02416992 2.32397461 0.03662109 C15.29874065 0.48557494 26.40511394 5.96690663 35.28515625 15.390625 C39.08442109 20.06398038 41.9944398 25.29841292 45 30.5 C45.515625 31.38623047 46.03125 32.27246094 46.5625 33.18554688 C51.07237007 40.93944849 55.54219515 48.71610057 60 56.5 C60.32909363 57.07461975 60.65818726 57.6492395 60.99725342 58.24127197 C66.34409502 67.57921833 71.67762863 76.92475304 77.01037598 86.27075195 C79.02721784 89.80528255 81.04457158 93.33952014 83.06253052 96.87341309 C84.05376232 98.60969472 85.04434015 100.34634965 86.03491211 102.08300781 C89.44702234 108.05853724 92.87816157 114.02184848 96.33984375 119.96875 C97.04488335 121.18210401 97.74988078 122.39548252 98.45483398 123.60888672 C99.79203165 125.91026157 101.13480326 128.20806997 102.48071289 130.50439453 C103.37197876 132.03749268 103.37197876 132.03749268 104.28125 133.6015625 C104.80783203 134.50213379 105.33441406 135.40270508 105.87695312 136.33056641 C107 138.5 107 138.5 107 140.5 C107.61746094 140.52578125 108.23492187 140.5515625 108.87109375 140.578125 C120.85940052 141.38099486 130.99621137 147.015602 139.25 155.6875 C146.64096903 164.41826621 150.34018312 175.26482535 150.22705078 186.63842773 C150.22734283 187.41973557 150.22763489 188.2010434 150.22793579 189.00602722 C150.22655248 191.56533262 150.21103885 194.12433978 150.1953125 196.68359375 C150.19157881 198.46720724 150.18873352 200.2508228 150.18673706 202.03443909 C150.17912863 206.71155536 150.15950429 211.38854592 150.1373291 216.06561279 C150.11681037 220.84515686 150.10772249 225.62472139 150.09765625 230.40429688 C150.07625562 239.76958625 150.04215359 249.13478264 150 258.5 C150.94093506 258.79946533 151.88187012 259.09893066 152.85131836 259.4074707 C160.22594236 261.96631713 166.26755423 267.70891497 170 274.5 C172.50617561 280.44377397 173.44223832 285.84392775 173.40405273 292.25756836 C173.41434761 293.49365593 173.41434761 293.49365593 173.42485046 294.75471497 C173.44299251 297.4499385 173.43929922 300.1445729 173.43359375 302.83984375 C173.43816151 304.73116746 173.44346885 306.62248952 173.44947815 308.5138092 C173.45838447 312.46687588 173.45601434 316.41974027 173.44604492 320.37280273 C173.43455692 325.41745681 173.4547769 330.4614107 173.48396206 335.50597286 C173.50238176 339.40870028 173.50202015 343.31126167 173.49632454 347.21402168 C173.49617204 349.07300359 173.50215695 350.93199726 173.51461601 352.79093742 C173.5843959 364.90741681 173.50941865 375.38687779 164.8125 384.8125 C163.77029297 385.98232422 163.77029297 385.98232422 162.70703125 387.17578125 C160.28290401 389.25710262 158.11703043 390.63034791 155.33081055 392.14526367 C154.51992477 392.58835373 153.709039 393.03144379 152.87358093 393.48796082 C151.94615837 393.98892021 151.94615837 393.98892021 151 394.5 C150.99635437 395.46085007 150.99270874 396.42170013 150.98895264 397.41166687 C150.951829 406.51710835 150.893869 415.62221706 150.81609726 424.72740459 C150.77677836 429.40723147 150.7445141 434.08687456 150.72900391 438.7668457 C150.71373377 443.29288041 150.6791077 447.81840932 150.63169098 452.3442173 C150.61698306 454.06111031 150.60896515 455.77807556 150.60811615 457.49503136 C150.59398004 471.76318665 148.97948122 483.84630169 140 495.5 C139.38125 496.386875 138.7625 497.27375 138.125 498.1875 C130.75956007 506.20283168 120.41941014 511.96898625 109.48112506 512.751849 C108.22853233 512.75271577 106.9759396 512.75358255 105.68538952 512.75447559 C104.62675548 512.75928531 104.62675548 512.75928531 103.5467349 512.76419219 C101.18790788 512.77247659 98.82933581 512.76657344 96.47050476 512.76069641 C94.75979645 512.76371781 93.0490895 512.76760724 91.33838493 512.77228898 C86.64183009 512.78257928 81.9453515 512.78038451 77.24879038 512.77610838 C72.18186342 512.77364302 67.1149549 512.782653 62.04803467 512.79014587 C52.12279332 512.80290044 42.19757901 512.8046856 32.27233084 512.80234561 C24.20478806 512.80056304 16.13725349 512.80231078 8.06971169 512.80657005 C6.3478028 512.80746284 6.3478028 512.80746284 4.59110788 512.80837366 C2.25910093 512.8095854 -0.07290602 512.81079954 -2.40491297 512.81201603 C-24.27890317 512.82289461 -46.15287795 512.82072765 -68.02686902 512.81463119 C-88.03682043 512.80946245 -108.04672315 512.82071577 -128.05666492 512.83972941 C-148.6028249 512.85910288 -169.14896183 512.86736462 -189.695131 512.86360615 C-201.23021972 512.86169328 -212.76526701 512.86419008 -224.30034828 512.87832069 C-234.12093485 512.89022924 -243.94145448 512.89164531 -253.76204196 512.87953053 C-258.77185719 512.87363801 -263.78154994 512.87255276 -268.79135704 512.88453293 C-273.38011152 512.8953786 -277.96864109 512.89230396 -282.55738499 512.87827124 C-284.21481231 512.87562069 -285.87225719 512.87800212 -287.5296673 512.88600711 C-302.49903224 512.95327122 -314.14921621 510.67839867 -325.51953125 500.171875 C-335.9375036 489.18376486 -339.3056921 478.2046442 -339.27415466 463.39450073 C-339.27939134 462.17670996 -339.28462802 460.95891918 -339.29002339 459.70422566 C-339.30240638 456.33600163 -339.30586757 452.96798665 -339.30542648 449.59975433 C-339.30707883 445.96222032 -339.3201532 442.32472394 -339.33161926 438.68721008 C-339.3544368 430.73865863 -339.36238648 422.79013393 -339.36744571 414.84155416 C-339.37070672 409.87424543 -339.37723167 404.90694441 -339.3844471 399.93964005 C-339.40400935 386.17454974 -339.42041557 372.4094666 -339.42332363 358.6443615 C-339.4235112 357.76406189 -339.42369877 356.88376228 -339.42389202 355.97678692 C-339.42425827 354.19236096 -339.42462196 352.407935 -339.42498314 350.62350903 C-339.42516595 349.73777058 -339.42534876 348.85203213 -339.42553711 347.93945312 C-339.42571766 347.05262785 -339.42589821 346.16580258 -339.42608423 345.25210382 C-339.42962422 330.88940878 -339.45663736 316.52686381 -339.494035 302.1642208 C-339.53216255 287.4025764 -339.55148144 272.64100639 -339.55178314 257.87931168 C-339.55236674 249.59750432 -339.56079527 241.31587598 -339.58978081 233.03411484 C-339.61435437 225.98072487 -339.62153752 218.92757921 -339.60653328 211.87415795 C-339.59938845 208.27949697 -339.60011551 204.68531784 -339.62294388 201.09071159 C-339.64752318 197.18273085 -339.63282993 193.27542868 -339.61473083 189.36740112 C-339.6279308 188.24664936 -339.64113077 187.1258976 -339.65473074 185.97118366 C-339.51182572 172.39289245 -334.17038064 161.98272677 -324.9375 152.34765625 C-313.71045649 141.58172345 -300.89694863 139.26950243 -285.85546875 139.54296875 C-256.70632582 140.37473095 -256.70632582 140.37473095 -231.45654297 127.35693359 C-227.0018734 123.98958945 -222.10347326 121.3687252 -217.25 118.625 C-215.22907074 117.45031853 -213.20954757 116.27321482 -211.19140625 115.09375 C-205.94688028 112.04505206 -200.6909961 109.0164234 -195.43261719 105.99169922 C-185.41397197 100.22864164 -175.43376841 94.40828702 -165.5 88.5 C-151.33561634 80.07702466 -137.06119756 71.85174302 -122.77050781 63.64550781 C-110.63413471 56.67323665 -98.53042235 49.65383255 -86.5 42.5 C-75.5585574 35.993724 -64.56305884 29.58915505 -53.51953125 23.2578125 C-49.58780309 21.00107318 -45.67092886 18.72239013 -41.77168274 16.41020203 C-40.02244642 15.37354508 -38.27054709 14.34153696 -36.51782227 13.31079102 C-34.33200092 12.02339462 -32.15107506 10.72763153 -29.97631836 9.42163086 C-20.53398429 3.88552537 -11.10713115 -0.28954326 0 0 Z M-40.92578125 44.28125 C-47.59863699 48.2771247 -54.32009642 52.18501736 -61.0625 56.0625 C-62.13105225 56.67754395 -63.19960449 57.29258789 -64.30053711 57.92626953 C-68.6089684 60.40447011 -72.9192712 62.87940611 -77.22949219 65.35449219 C-89.36586529 72.32676335 -101.46957765 79.34616745 -113.5 86.5 C-125.52591697 93.65115345 -137.62528169 100.66744262 -149.75732422 107.63671875 C-158.42220182 112.61566362 -167.07825134 117.60993213 -175.73046875 122.61083984 C-177.97728132 123.90906533 -180.2246062 125.20636373 -182.47265625 126.50244141 C-185.85938575 128.45545326 -189.24233614 130.41495414 -192.625 132.375 C-193.66930176 132.97642822 -194.71360352 133.57785645 -195.78955078 134.19750977 C-197.21243408 135.02400024 -197.21243408 135.02400024 -198.6640625 135.8671875 C-199.50404785 136.35300293 -200.3440332 136.83881836 -201.20947266 137.33935547 C-201.80034668 137.72236816 -202.3912207 138.10538086 -203 138.5 C-203 138.83 -203 139.16 -203 139.5 C-176.49865384 141.3636419 -157.04022363 142.19057817 -135.1484375 125.7578125 C-130.25781623 122.25064241 -125.03656791 119.38553762 -119.77581787 116.48361206 C-116.82744662 114.85053157 -113.90222413 113.17723172 -110.9765625 111.50390625 C-110.39866974 111.17403214 -109.82077698 110.84415802 -109.22537231 110.50428772 C-102.90025414 106.88584038 -96.63626159 103.16512007 -90.375 99.4375 C-76.25457633 91.03114588 -62.02106217 82.82869581 -47.77050781 74.64550781 C-32.11767745 65.65305374 -16.5521773 56.52780973 -1.03613281 47.30224609 C3.36488244 44.68980684 7.77480697 42.09265328 12.1875 39.5 C12.89463135 39.08451904 13.6017627 38.66903809 14.33032227 38.2409668 C15.88665428 37.32692419 17.44328487 36.41338998 19 35.5 C14.86065754 28.67670032 10.36785264 25.86916512 2.6875 23.91015625 C-11.98070362 22.4978461 -29.0471979 37.16664995 -40.92578125 44.28125 Z M24.8828125 59.4375 C23.81546875 60.076875 22.748125 60.71625 21.6484375 61.375 C20.78943848 61.89320312 20.78943848 61.89320312 19.91308594 62.421875 C16.84667376 64.27076579 13.77122085 66.10446375 10.6953125 67.9375 C10.05781067 68.3176123 9.42030884 68.69772461 8.76348877 69.08935547 C2.22398463 72.97883351 -4.38263616 76.74471602 -11 80.5 C-20.26449578 85.76209798 -29.46953343 91.11182516 -38.625 96.5625 C-50.58272073 103.6813257 -62.61554526 110.66124834 -74.68261719 117.59277344 C-78.17846923 119.60260536 -81.67176319 121.61681636 -85.1640625 123.6328125 C-85.75495163 123.97390549 -86.34584076 124.31499847 -86.95463562 124.66642761 C-88.69894864 125.67340862 -90.44322462 126.6804538 -92.1875 127.6875 C-98.45163425 131.30348865 -104.7162544 134.91817613 -111 138.5 C-111 138.83 -111 139.16 -111 139.5 C-75.38729167 141.85280074 -75.38729167 141.85280074 -44.00732422 126.6640625 C-38.74672179 122.878547 -33.10568328 119.7411346 -27.5 116.5 C-25.23945841 115.15995641 -22.98033648 113.81751502 -20.72265625 112.47265625 C-14.15440374 108.58074567 -7.55309232 104.74827678 -0.9375 100.9375 C0.641521 100.02713989 0.641521 100.02713989 2.25244141 99.09838867 C7.30562959 96.1889656 12.36443916 93.28989654 17.43461609 90.41020203 C19.8382096 89.04393562 22.2390583 87.67288847 24.63961792 86.30130005 C26.33263711 85.33663787 28.02967567 84.37904067 29.72680664 83.42163086 C30.75281982 82.83518799 31.77883301 82.24874512 32.8359375 81.64453125 C34.19017822 80.87653198 34.19017822 80.87653198 35.57177734 80.09301758 C38.44605352 78.325091 38.44605352 78.325091 42 74.5 C38.7 68.56 35.4 62.62 32 56.5 C29.05727262 56.5 27.39558464 57.92184602 24.8828125 59.4375 Z M46.96875 100.21875 C45.94386475 100.81341064 44.91897949 101.40807129 43.86303711 102.02075195 C42.75323486 102.67390381 41.64343262 103.32705566 40.5 104 C39.33824312 104.67779239 38.17621043 105.35511222 37.01391602 106.03198242 C33.33635637 108.17740598 29.66721303 110.33694903 26 112.5 C25.40338562 112.85177307 24.80677124 113.20354614 24.19207764 113.565979 C17.86260079 117.29939065 11.54154503 121.04680031 5.2265625 124.8046875 C1.33538831 127.11890588 -2.56337258 129.41852118 -6.4765625 131.6953125 C-7.28343506 132.16541748 -8.09030762 132.63552246 -8.92163086 133.11987305 C-10.3893972 133.97339475 -11.85886015 134.82400824 -13.33032227 135.67114258 C-14.9031118 136.58676758 -16.45464981 137.53878782 -18 138.5 C-18 138.83 -18 139.16 -18 139.5 C13.68 139.5 45.36 139.5 78 139.5 C76.519584 135.058752 75.29877427 131.98824359 72.98828125 128.0859375 C72.09786133 126.57193359 72.09786133 126.57193359 71.18945312 125.02734375 C70.57005859 123.98707031 69.95066406 122.94679688 69.3125 121.875 C68.10026042 119.8203125 66.88802083 117.765625 65.67578125 115.7109375 C65.0720166 114.69870117 64.46825195 113.68646484 63.84619141 112.64355469 C62.5652655 110.46249122 61.31426613 108.26368328 60.08740234 106.05175781 C59.47461426 104.95444336 58.86182617 103.85712891 58.23046875 102.7265625 C57.68156982 101.72447754 57.1326709 100.72239258 56.56713867 99.68994141 C56.04998291 98.96726074 55.53282715 98.24458008 55 97.5 C51.40753377 97.5 50.05283963 98.41767693 46.96875 100.21875 Z M-310 171.5 C-314.88828157 178.64559343 -315.71995855 185.17742991 -315.62818909 193.65823364 C-315.63528347 194.84536355 -315.64237786 196.03249346 -315.64968723 197.255597 C-315.66416575 200.52434755 -315.6564438 203.79214384 -315.6389643 207.06085086 C-315.62553017 210.59600565 -315.64104876 214.13105427 -315.65278625 217.66619873 C-315.67112129 224.58050967 -315.66267889 231.49453715 -315.64469803 238.40883912 C-315.63064846 244.02926178 -315.62678428 249.6496077 -315.6301403 255.27004623 C-315.63061775 256.07123631 -315.63109519 256.87242639 -315.6315871 257.69789495 C-315.63261347 259.32568378 -315.63366883 260.95347259 -315.63475286 262.58126138 C-315.64331126 276.95966703 -315.6266717 291.33793617 -315.59692383 305.71630859 C-315.56807772 319.65907523 -315.56100909 333.60164529 -315.57641602 347.54443359 C-315.59318561 362.74113212 -315.59720549 377.93773743 -315.57970566 393.1344384 C-315.57786133 394.75548735 -315.5760266 396.37653632 -315.57420158 397.9975853 C-315.57328949 398.7951017 -315.5723774 399.5926181 -315.57143768 400.41430167 C-315.56583782 406.02721532 -315.56913421 411.64008337 -315.57574654 417.25299454 C-315.58348622 424.0941939 -315.57670405 430.93519995 -315.5515715 437.77636041 C-315.53909229 441.2650265 -315.53291055 444.75339186 -315.54411316 448.24206924 C-315.55279814 452.02694047 -315.53686572 455.81093567 -315.5146637 459.59573364 C-315.52290446 460.69398472 -315.53114523 461.7922358 -315.53963572 462.92376721 C-315.45719372 470.53498843 -314.18805836 475.86193738 -309.03515625 481.7421875 C-308.05869141 482.55042969 -308.05869141 482.55042969 -307.0625 483.375 C-306.41410156 483.92929687 -305.76570313 484.48359375 -305.09765625 485.0546875 C-300.50627781 488.2182071 -296.58744344 488.75057551 -291.06366158 488.75447559 C-290.37450981 488.75768207 -289.68535805 488.76088855 -288.9753229 488.76419219 C-286.66096455 488.77250815 -284.34686391 488.76656239 -282.03250122 488.76069641 C-280.35850411 488.76371637 -278.68450838 488.76760507 -277.01051509 488.77228898 C-272.40626347 488.78259782 -267.80208947 488.78037982 -263.19783139 488.77610838 C-258.23385856 488.77364638 -253.26990467 488.78264878 -248.30593872 488.79014587 C-238.57928499 488.80290965 -228.85265885 488.80468447 -219.12599815 488.80234561 C-211.22142519 488.80056413 -203.31686062 488.80230843 -195.41228867 488.80657005 C-194.28819051 488.80716524 -193.16409236 488.80776043 -192.00593062 488.80837366 C-189.72247641 488.80958538 -187.4390222 488.81079952 -185.15556799 488.81201603 C-163.73043375 488.82289808 -142.30531524 488.82072596 -120.88018011 488.81463119 C-101.27223236 488.80946167 -81.6643343 488.82071722 -62.05639638 488.83972941 C-41.93180874 488.85909323 -21.80724461 488.86736635 -1.68264759 488.86360615 C9.61930864 488.86169187 20.92122259 488.86420378 32.22317123 488.87832069 C41.84480048 488.89021693 51.46636142 488.89165916 61.08799158 488.87953053 C65.99818404 488.87362943 70.90825144 488.87257634 75.81843567 488.88453293 C80.31274323 488.89534976 84.80682071 488.8923386 89.30111732 488.87827124 C90.92759565 488.8756127 92.55409178 488.87802701 94.18055271 488.88600711 C96.39130614 488.89610169 98.60125797 488.88770175 100.81197929 488.87473011 C102.65392413 488.87481263 102.65392413 488.87481263 104.53307998 488.87489682 C111.67020078 488.10312133 117.18307625 484.71535089 122 479.5 C127.42063537 471.72949644 126.51149778 462.45487051 126.390625 453.43359375 C126.38315263 451.78736563 126.37746441 450.14112854 126.37347412 448.49488831 C126.35829599 444.18914675 126.31908323 439.88395603 126.2746582 435.57843018 C126.23353531 431.17410735 126.21542699 426.76969439 126.1953125 422.36523438 C126.15258002 413.74323849 126.08442547 405.12168802 126 396.5 C125.04581177 396.49635437 124.09162354 396.49270874 123.10852051 396.48895264 C114.04816223 396.45176319 104.98813633 396.39373392 95.92803192 396.31609726 C91.27183266 396.2768462 86.61581619 396.24454942 81.95947266 396.22900391 C77.45287671 396.21368813 72.94678411 396.17898474 68.44041443 396.13169098 C66.73437413 396.11702911 65.0282619 396.10896789 63.32215881 396.10811615 C41.47059197 396.08626742 22.3152654 390.90886216 6.515625 375.14453125 C-7.36195581 360.55583217 -13.26500389 342.40841699 -13 322.5 C-11.66784896 303.5376626 -3.47742127 285.70751051 10.7890625 273.01953125 C27.13873015 260.14255026 43.73025626 257.0600669 63.890625 256.98828125 C65.68952637 256.97140297 67.48841616 256.95324858 69.28729248 256.93388367 C73.98232405 256.88671909 78.6773087 256.85669403 83.37249756 256.83044434 C88.17941549 256.80046801 92.98617227 256.75399708 97.79296875 256.70898438 C107.1952276 256.62333372 116.59751998 256.55581998 126 256.5 C126.09295656 247.00710084 126.16389446 237.51435998 126.20724869 228.02110386 C126.22806369 223.61229358 126.25626894 219.20379624 126.30175781 214.79516602 C126.3454343 210.53520091 126.36918283 206.27553555 126.37950897 202.01536369 C126.38686144 200.39555078 126.40121867 198.77575302 126.42292023 197.1560688 C126.54758628 187.4601403 126.61579773 178.90012273 120 171.16015625 C119.34 170.63292969 118.68 170.10570312 118 169.5625 C117.34 169.01722656 116.68 168.47195312 116 167.91015625 C110.07111358 163.72982813 104.23253446 163.37556434 97.08675671 163.37136555 C96.41224566 163.36961251 95.73773461 163.36785947 95.04278383 163.36605331 C92.78429513 163.36140419 90.52587111 163.363856 88.26737976 163.36628723 C86.63106939 163.36441871 84.99475946 163.36211785 83.35845023 163.35942191 C78.86295195 163.35330258 74.36747227 163.35343766 69.87197077 163.35461628 C65.02318511 163.35482026 60.17440543 163.34930187 55.32562256 163.34455872 C45.82637519 163.33625092 36.32713402 163.33350382 26.82788333 163.33294634 C19.10689683 163.33247125 11.38591238 163.33041685 3.66492653 163.32724571 C-18.22303343 163.31843885 -40.11098848 163.3138264 -61.99895022 163.31457619 C-63.76907069 163.31463612 -63.76907069 163.31463612 -65.57495117 163.31469727 C-67.34723156 163.31475859 -67.34723156 163.31475859 -69.1553156 163.31482115 C-88.30594714 163.31522765 -107.45655901 163.3056572 -126.60718486 163.2915589 C-146.26850543 163.27719878 -165.92981641 163.27028851 -185.59114236 163.27115268 C-196.63044991 163.27148477 -207.66973685 163.26873235 -218.70903969 163.25797462 C-228.10769358 163.24887443 -237.50631752 163.24669043 -246.9049739 163.25348405 C-251.69995747 163.25675165 -256.49488356 163.25679724 -261.28986168 163.2481308 C-265.68118203 163.24027557 -270.07239921 163.24168726 -274.46371701 163.25041493 C-276.05049798 163.25195206 -277.63728661 163.25012572 -279.22405855 163.24455485 C-296.07499699 163.02810637 -296.07499699 163.02810637 -310 171.5 Z M29 289.5 C28.39671875 289.94085938 27.7934375 290.38171875 27.171875 290.8359375 C18.43637472 297.71039641 14.43009098 307.20972705 11 317.5 C9.98612853 331.49142627 11.25661788 343.62952746 20.54296875 354.8671875 C21.02378906 355.40601563 21.50460937 355.94484375 22 356.5 C22.763125 357.36625 23.52625 358.2325 24.3125 359.125 C35.44084749 368.95935359 46.99217696 372.62623069 61.66992188 372.67700195 C62.50826065 372.68357315 63.34659943 372.69014435 64.21034241 372.69691467 C66.96314605 372.71650209 69.71589569 372.72827356 72.46875 372.73828125 C73.88576454 372.74439454 73.88576454 372.74439454 75.33140564 372.75063133 C80.32558976 372.77142351 85.31974692 372.78575832 90.31396484 372.79516602 C95.4620341 372.80625507 100.6096741 372.84070331 105.75759125 372.88033772 C109.72793369 372.90650004 113.6981733 372.91485719 117.66859436 372.91844749 C119.56635967 372.92330933 121.46412051 372.93491179 123.36180115 372.95348549 C126.01824058 372.97788356 128.67356051 372.97691161 131.33007812 372.9699707 C132.10742813 372.98278076 132.88477814 372.99559082 133.6856842 373.00878906 C139.21076097 372.95634459 142.49064367 371.7478676 147 368.5 C149.64508901 365.16129243 149.29592984 361.25856081 149.29052734 357.16455078 C149.29724457 356.43233307 149.30396179 355.70011536 149.31088257 354.94570923 C149.32985626 352.52884099 149.33378643 350.11225055 149.3359375 347.6953125 C149.34236594 346.01146328 149.34909434 344.32761519 149.35610962 342.64376831 C149.36808084 339.11486217 149.37179061 335.58605392 149.37060547 332.05712891 C149.3704023 327.54217573 149.3977023 323.02785218 149.43214989 318.51304817 C149.45442216 315.03511693 149.45844291 311.55733713 149.45738602 308.07934189 C149.45974157 306.415209 149.46856255 304.75107191 149.48405075 303.08700943 C149.50371791 300.75564134 149.49787098 298.42562971 149.48583984 296.09423828 C149.49707886 295.41143799 149.50831787 294.7286377 149.51989746 294.02514648 C149.45543424 289.09227859 148.14738304 286.25813971 145 282.5 C141.37646134 279.62887231 136.81801294 280.20456456 132.39868164 280.20947266 C131.53140442 280.20275543 130.6641272 280.19603821 129.77056885 280.18911743 C126.90037305 280.17010815 124.03041111 280.16621059 121.16015625 280.1640625 C119.15677292 280.15763247 117.15339053 280.15090395 115.15000916 280.14389038 C110.94430367 280.13190735 106.73868034 280.1282102 102.53295898 280.12939453 C97.17349842 280.12959683 91.81457346 280.10239196 86.4552393 280.06785011 C82.31220643 280.04547361 78.16929976 280.04156041 74.02621269 280.04261398 C72.05247606 280.04027043 70.07873529 280.03151804 68.10505867 280.01594925 C53.81217625 279.91383824 40.87052048 280.518323 29 289.5 Z " fill="#000000" transform="translate(339,-0.5)"/>
<path d="M0 0 C5.07227209 4.48269065 8.52029854 9.14723983 9.37109375 15.98046875 C9.55272244 24.75206607 8.28717262 31.23757499 2.30859375 37.87890625 C-3.01366368 42.49004786 -9.05907584 43.85651836 -16 44 C-23.62187542 43.12139765 -28.88103431 39.57425831 -34 34 C-38.39967301 27.89722777 -38.8371883 21.34973445 -38 14 C-35.72386251 6.56532661 -31.71811547 1.81226394 -25 -2 C-16.66387703 -5.90201501 -7.78226129 -4.6102835 0 0 Z " fill="#000000" transform="translate(410,306)"/>
</svg>
