<?xml version="1.0" encoding="UTF-8"?>
<svg version="1.1" xmlns="http://www.w3.org/2000/svg" width="1920" height="1920">
<path d="M0 0 C0.98116791 0.00060425 1.96233582 0.0012085 2.97323608 0.00183105 C89.18993558 0.14500611 172.9176603 20.31960062 355.3125 126.1875 C357.14524825 127.66739155 358.97859465 129.1465426 360.8125 130.625 C365.60659885 134.54371419 370.19491488 138.65100119 374.75 142.84375 C376.96934276 144.87363667 379.21922034 146.85245498 381.5 148.8125 C384.9434967 151.80013665 388.13369184 154.98813123 391.328125 158.23828125 C393.17482036 160.05225957 395.07823676 161.71461444 397.0625 163.375 C402.36315691 167.94346501 406.94498684 173.19095886 411.64013672 178.36230469 C413.36975479 180.24998712 415.1204219 182.11575768 416.87890625 183.9765625 C423.66792826 191.16111485 430.14680663 198.4544334 436.3125 206.1875 C437.29229687 207.37792953 438.27421168 208.56661783 439.2578125 209.75390625 C497.998701 280.8418921 538.32335258 366.60878004 569.71484375 634.14990234 C562.04038859 712.17110734 541.1092831 786.33298177 487.3125 889.1875 C486.49048096 890.55865967 486.49048096 890.55865967 485.65185547 891.95751953 C470.80622584 916.6556139 453.931325 940.18343409 435.3125 962.1875 C434.87019043 962.71327637 434.42788086 963.23905273 433.97216797 963.78076172 C427.18957292 971.83323094 420.21992354 979.68222563 413.01953125 987.36279297 C411.10031904 989.41430785 409.19098535 991.47481795 407.28125 993.53515625 C405.87535296 995.04459965 404.46910601 996.55371724 403.0625 998.0625 C402.41313477 998.76415283 401.76376953 999.46580566 401.09472656 1000.1887207 C397.27563008 1004.26724033 393.31428671 1008.02961289 389.07128906 1011.66455078 C387.05016337 1013.41465934 385.1691413 1015.26455008 383.3125 1017.1875 C379.47662421 1021.06780678 375.45687713 1024.64198196 371.3125 1028.1875 C370.25862512 1029.10490678 369.20528238 1030.02292505 368.15234375 1030.94140625 C360.97165064 1037.18249372 353.65799986 1043.16412984 346.05029297 1048.87939453 C344.19572497 1050.27540118 342.34965976 1051.68220724 340.50390625 1053.08984375 C331.30034492 1060.08337288 321.9172608 1066.7570155 312.3125 1073.1875 C311.67328613 1073.61853027 311.03407227 1074.04956055 310.37548828 1074.49365234 C239.28360171 1122.25318533 156.57839336 1152.47976571 -109.25390625 1156.93359375 C-181.80452263 1142.38450729 -252.93243024 1113.66287153 -313.6875 1071.1875 C-314.36425781 1070.71892578 -315.04101562 1070.25035156 -315.73828125 1069.76757812 C-328.7861774 1060.72808971 -341.34733683 1051.17341901 -353.6875 1041.1875 C-354.57050781 1040.47980469 -355.45351563 1039.77210937 -356.36328125 1039.04296875 C-362.12864856 1034.38663956 -367.67257493 1029.54995944 -373.125 1024.53125 C-375.34434276 1022.50136333 -377.59422034 1020.52254502 -379.875 1018.5625 C-383.3184967 1015.57486335 -386.50869184 1012.38686877 -389.703125 1009.13671875 C-391.54982036 1007.32274043 -393.45323676 1005.66038556 -395.4375 1004 C-400.73815691 999.43153499 -405.31998684 994.18404114 -410.01513672 989.01269531 C-411.74475479 987.12501288 -413.4954219 985.25924232 -415.25390625 983.3984375 C-422.04292826 976.21388515 -428.52180663 968.9205666 -434.6875 961.1875 C-435.66729687 959.99707047 -436.64921168 958.80838217 -437.6328125 957.62109375 C-496.373701 886.5331079 -536.69835258 800.76621996 -567.6875 638.1875 C-567.79191406 637.06666016 -567.89632813 635.94582031 -568.00390625 634.79101562 C-575.28533428 552.3449729 -564.46121153 468.80026559 -435.87890625 207.77734375 C-435.15574219 206.92269531 -434.43257812 206.06804687 -433.6875 205.1875 C-433.24519043 204.66172363 -432.80288086 204.13594727 -432.34716797 203.59423828 C-425.56457292 195.54176906 -418.59492354 187.69277437 -411.39453125 180.01220703 C-409.47531904 177.96069215 -407.56598535 175.90018205 -405.65625 173.83984375 C-404.25035296 172.33040035 -402.84410601 170.82128276 -401.4375 169.3125 C-400.78813477 168.61084717 -400.13876953 167.90919434 -399.46972656 167.1862793 C-395.65063008 163.10775967 -391.68928671 159.34538711 -387.44628906 155.71044922 C-385.42516337 153.96034066 -383.5441413 152.11044992 -381.6875 150.1875 C-377.85209561 146.30758415 -373.84070619 142.72229308 -369.6875 139.1875 C-368.72972656 138.36378906 -367.77195312 137.54007813 -366.78515625 136.69140625 C-359.50194386 130.45218847 -352.07468408 124.42364177 -344.47802734 118.5703125 C-343.31354341 117.67098921 -342.15222096 116.76755221 -340.99462891 115.859375 C-271.6272769 61.46929213 -187.63921803 24.96818825 -39.6875 1.1875 C-38.41430908 1.10137451 -37.14111816 1.01524902 -35.8293457 0.92651367 C-23.88500076 0.16278989 -11.96649795 -0.01373778 0 0 Z " fill="#FEFEFE" transform="translate(955.6875,363.8125)"/>
<path d="M0 0 C174.9 0 349.8 0 530 0 C530 9.57 530 19.14 530 29 C534.62 29 539.24 29 544 29 C544 19.43 544 9.86 544 0 C614.62 0 685.24 0 758 0 C758 41.91 758 83.82 758 127 C745.625 128.485 745.625 128.485 733 130 C731.02 130.99 729.04 131.98 727 133 C725.18270166 133.5742867 723.34834861 134.09775717 721.5 134.5625 C717.60812199 135.57130876 713.79622796 136.66619018 710 138 C710 138.66 710 139.32 710 140 C708.91525391 140.39445312 708.91525391 140.39445312 707.80859375 140.796875 C693.08690187 147.10324649 679.35174183 162.29651634 672.3125 176.375 C671 179 671 179 669.546875 180.33203125 C667.54870799 182.48662042 666.88484897 184.53949067 665.9375 187.3125 C665.5971875 188.29992187 665.256875 189.28734375 664.90625 190.3046875 C664.45765625 191.63886719 664.45765625 191.63886719 664 193 C663.649375 193.969375 663.29875 194.93875 662.9375 195.9375 C662.628125 196.948125 662.31875 197.95875 662 199 C661.75540039 199.75321533 661.51080078 200.50643066 661.25878906 201.2824707 C658.53354887 210.64656116 658.65585272 219.60092135 658.8125 229.25 C658.82758544 230.88149796 658.84126696 232.51300953 658.85351562 234.14453125 C658.8861898 238.09669732 658.93775426 242.04819362 659 246 C659.66 246 660.32 246 661 246 C661.185625 247.12921875 661.185625 247.12921875 661.375 248.28125 C662.90886487 256.18065406 665.47177289 262.57655772 669.30664062 269.6171875 C671.18497975 273.10803005 672 274.94241006 672 279 C672.66 279 673.32 279 674 279 C675.33619621 280.65770921 676.59462139 282.37852016 677.8125 284.125 C683.80921254 292.6927369 683.80921254 292.6927369 692 299 C692.33 299.99 692.66 300.98 693 302 C693.99 302.33 694.98 302.66 696 303 C696.45375 303.62777344 696.9075 304.25554687 697.375 304.90234375 C699.33758961 307.43578274 701.09599213 308.25310359 704 309.5625 C708.70346912 311.69725905 708.70346912 311.69725905 710.4921875 313.5234375 C715.16912989 318.10344844 723.85259677 319.37785751 730.125 320.5078125 C732 321 732 321 735 323 C742.54615428 324.50923086 750.31625092 324.57312505 758 325 C758 366.91 758 408.82 758 452 C587.06 452 416.12 452 240 452 C240 430.88 240 409.76 240 388 C209.97 388 179.94 388 149 388 C149 409.12 149 430.24 149 452 C118.97 452 88.94 452 58 452 C58 430.55 58 409.1 58 387 C87.7 387 117.4 387 148 387 C148 365.55 148 344.1 148 322 C207.73 322 267.46 322 329 322 C329 301.21 329 280.42 329 259 C303.92 259 278.84 259 253 259 C253 237.55 253 216.1 253 194 C188.65 194 124.3 194 58 194 C58 172.55 58 151.1 58 129 C91.33 129 124.66 129 159 129 C159 108.21 159 87.42 159 66 C106.53 66 54.06 66 0 66 C0 44.22 0 22.44 0 0 Z " fill="#0792C3" transform="translate(610,720)"/>
<path d="M0 0 C25.41 0 50.82 0 77 0 C77 21.78 77 43.56 77 66 C52.25 66 27.5 66 2 66 C2 87.12 2 108.24 2 130 C-17.1764674 130.04010881 -17.1764674 130.04010881 -25.32226562 130.04882812 C-30.8903905 130.05481642 -36.458499 130.06191634 -42.02661133 130.07543945 C-46.51344546 130.08626886 -51.00026204 130.09227695 -55.48710823 130.09487724 C-57.20280293 130.0967314 -58.91849662 130.10035182 -60.63418388 130.10573006 C-63.02884913 130.11294121 -65.42344096 130.11399091 -67.81811523 130.11352539 C-68.53452682 130.11712067 -69.25093842 130.12071594 -69.98905945 130.12442017 C-74.88594784 130.11405216 -74.88594784 130.11405216 -76 129 C-76.09930533 127.01112506 -76.12799462 125.01869583 -76.12939453 123.02734375 C-76.13254669 121.74931885 -76.13569885 120.47129395 -76.13894653 119.15454102 C-76.13715675 117.74886033 -76.1351058 116.34317995 -76.1328125 114.9375 C-76.13348558 113.50642887 -76.13445564 112.07535785 -76.13571167 110.64428711 C-76.13718844 107.64142776 -76.13503476 104.6385981 -76.13037109 101.63574219 C-76.12467381 97.77847429 -76.12795292 93.92127596 -76.13394356 90.06401062 C-76.13754974 87.10786409 -76.13641032 84.15173417 -76.13381577 81.19558716 C-76.13314665 79.77295931 -76.13397437 78.35032997 -76.13629532 76.92770386 C-76.13882274 74.94268826 -76.13429042 72.95766741 -76.12939453 70.97265625 C-76.12859894 69.84093994 -76.12780334 68.70922363 -76.12698364 67.54321289 C-76 65 -76 65 -75 64 C-72.65746218 63.90507278 -70.34453896 63.87440209 -68.00170898 63.88647461 C-66.90421326 63.88625557 -66.90421326 63.88625557 -65.7845459 63.8860321 C-63.35503216 63.88673133 -60.92559417 63.89452415 -58.49609375 63.90234375 C-56.81600486 63.9042079 -55.13591543 63.90563181 -53.45582581 63.90663147 C-49.02526357 63.91045693 -44.5947339 63.92028744 -40.16418457 63.93133545 C-34.85284346 63.94334345 -29.54149148 63.94795168 -24.23014069 63.95378876 C-16.15340444 63.96349919 -8.07673973 63.98265553 0 64 C0 42.88 0 21.76 0 0 Z " fill="#295397" transform="translate(532,849)"/>
<path d="M0 0 C29.04 0 58.08 0 88 0 C88 21.45 88 42.9 88 65 C58.96 65 29.92 65 0 65 C0 43.55 0 22.1 0 0 Z " fill="#1B589A" transform="translate(610,978)"/>
<path d="M0 0 C29.37 0 58.74 0 89 0 C89 20.79 89 41.58 89 63 C59.63 63 30.26 63 0 63 C0 42.21 0 21.42 0 0 Z " fill="#155FA0" transform="translate(669,1108)"/>
<path d="M0 0 C0.98116791 0.00060425 1.96233582 0.0012085 2.97323608 0.00183105 C89.18993558 0.14500611 172.9176603 20.31960062 355.3125 126.1875 C357.14524825 127.66739155 358.97859465 129.1465426 360.8125 130.625 C365.60659885 134.54371419 370.19491488 138.65100119 374.75 142.84375 C376.96934276 144.87363667 379.21922034 146.85245498 381.5 148.8125 C384.9434967 151.80013665 388.13369184 154.98813123 391.328125 158.23828125 C393.17482036 160.05225957 395.07823676 161.71461444 397.0625 163.375 C402.36315691 167.94346501 406.94498684 173.19095886 411.64013672 178.36230469 C413.36975479 180.24998712 415.1204219 182.11575768 416.87890625 183.9765625 C423.66792826 191.16111485 430.14680663 198.4544334 436.3125 206.1875 C437.29229687 207.37792953 438.27421168 208.56661783 439.2578125 209.75390625 C497.998701 280.8418921 538.32335258 366.60878004 569.71484375 634.14990234 C562.04038859 712.17110734 541.1092831 786.33298177 487.3125 889.1875 C486.49048096 890.55865967 486.49048096 890.55865967 485.65185547 891.95751953 C470.80622584 916.6556139 453.931325 940.18343409 435.3125 962.1875 C434.87019043 962.71327637 434.42788086 963.23905273 433.97216797 963.78076172 C427.18957292 971.83323094 420.21992354 979.68222563 413.01953125 987.36279297 C411.10031904 989.41430785 409.19098535 991.47481795 407.28125 993.53515625 C405.87535296 995.04459965 404.46910601 996.55371724 403.0625 998.0625 C402.41313477 998.76415283 401.76376953 999.46580566 401.09472656 1000.1887207 C397.27563008 1004.26724033 393.31428671 1008.02961289 389.07128906 1011.66455078 C387.05016337 1013.41465934 385.1691413 1015.26455008 383.3125 1017.1875 C379.47662421 1021.06780678 375.45687713 1024.64198196 371.3125 1028.1875 C370.25862512 1029.10490678 369.20528238 1030.02292505 368.15234375 1030.94140625 C360.97165064 1037.18249372 353.65799986 1043.16412984 346.05029297 1048.87939453 C344.19572497 1050.27540118 342.34965976 1051.68220724 340.50390625 1053.08984375 C331.30034492 1060.08337288 321.9172608 1066.7570155 312.3125 1073.1875 C311.67328613 1073.61853027 311.03407227 1074.04956055 310.37548828 1074.49365234 C239.28360171 1122.25318533 156.57839336 1152.47976571 -109.25390625 1156.93359375 C-181.80452263 1142.38450729 -252.93243024 1113.66287153 -313.6875 1071.1875 C-314.36425781 1070.71892578 -315.04101562 1070.25035156 -315.73828125 1069.76757812 C-328.7861774 1060.72808971 -341.34733683 1051.17341901 -353.6875 1041.1875 C-354.57050781 1040.47980469 -355.45351563 1039.77210937 -356.36328125 1039.04296875 C-362.12864856 1034.38663956 -367.67257493 1029.54995944 -373.125 1024.53125 C-375.34434276 1022.50136333 -377.59422034 1020.52254502 -379.875 1018.5625 C-383.3184967 1015.57486335 -386.50869184 1012.38686877 -389.703125 1009.13671875 C-391.54982036 1007.32274043 -393.45323676 1005.66038556 -395.4375 1004 C-400.73815691 999.43153499 -405.31998684 994.18404114 -410.01513672 989.01269531 C-411.74475479 987.12501288 -413.4954219 985.25924232 -415.25390625 983.3984375 C-422.04292826 976.21388515 -428.52180663 968.9205666 -434.6875 961.1875 C-435.66729687 959.99707047 -436.64921168 958.80838217 -437.6328125 957.62109375 C-496.373701 886.5331079 -536.69835258 800.76621996 -567.6875 638.1875 C-567.79191406 637.06666016 -567.89632813 635.94582031 -568.00390625 634.79101562 C-575.28533428 552.3449729 -564.46121153 468.80026559 -435.87890625 207.77734375 C-435.15574219 206.92269531 -434.43257812 206.06804687 -433.6875 205.1875 C-433.24519043 204.66172363 -432.80288086 204.13594727 -432.34716797 203.59423828 C-425.56457292 195.54176906 -418.59492354 187.69277437 -411.39453125 180.01220703 C-409.47531904 177.96069215 -407.56598535 175.90018205 -405.65625 173.83984375 C-404.25035296 172.33040035 -402.84410601 170.82128276 -401.4375 169.3125 C-400.78813477 168.61084717 -400.13876953 167.90919434 -399.46972656 167.1862793 C-395.65063008 163.10775967 -391.68928671 159.34538711 -387.44628906 155.71044922 C-385.42516337 153.96034066 -383.5441413 152.11044992 -381.6875 150.1875 C-377.85209561 146.30758415 -373.84070619 142.72229308 -369.6875 139.1875 C-368.72972656 138.36378906 -367.77195312 137.54007813 -366.78515625 136.69140625 C-359.50194386 130.45218847 -352.07468408 124.42364177 -344.47802734 118.5703125 C-343.31354341 117.67098921 -342.15222096 116.76755221 -340.99462891 115.859375 C-271.6272769 61.46929213 -187.63921803 24.96818825 -39.6875 1.1875 C-38.41430908 1.10137451 -37.14111816 1.01524902 -35.8293457 0.92651367 C-23.88500076 0.16278989 -11.96649795 -0.01373778 0 0 Z M-79.4375 6.9375 C-80.33449615 7.06688965 -81.23149231 7.1962793 -82.15567017 7.32958984 C-97.83402771 9.60390826 -113.28498889 12.44596921 -128.6875 16.1875 C-129.65494141 16.41904785 -130.62238281 16.6505957 -131.61914062 16.88916016 C-187.61547509 30.43019605 -241.57939986 53.07643619 -290.6875 83.1875 C-291.63592773 83.76886719 -292.58435547 84.35023438 -293.56152344 84.94921875 C-306.33636243 92.83073331 -318.67373138 101.19086288 -330.6875 110.1875 C-331.75194336 110.98172363 -331.75194336 110.98172363 -332.83789062 111.79199219 C-347.03786649 122.41936266 -360.93378752 133.45259276 -373.87890625 145.58984375 C-376.02454509 147.57433586 -378.19274333 149.49431945 -380.40576172 151.40087891 C-384.42584439 154.91315143 -388.23643613 158.59121998 -392.00390625 162.37109375 C-392.66406235 163.03029312 -393.32421844 163.68949249 -394.00437927 164.3686676 C-395.38785506 165.75146835 -396.77009083 167.13551076 -398.15112305 168.52075195 C-400.24481669 170.61980343 -402.34379874 172.7134594 -404.44335938 174.80664062 C-405.79719571 176.16113786 -407.15072175 177.51594531 -408.50390625 178.87109375 C-409.42919884 179.79334999 -409.42919884 179.79334999 -410.3731842 180.73423767 C-414.6738798 185.05774438 -418.71373499 189.56320693 -422.6875 194.1875 C-423.66083114 195.30523398 -424.63468204 196.42251587 -425.609375 197.5390625 C-432.56069643 205.56345552 -439.23397133 213.75831802 -445.6875 222.1875 C-446.2640332 222.93805664 -446.84056641 223.68861328 -447.43457031 224.46191406 C-456.33033833 236.07466231 -464.78565462 247.87702541 -472.6875 260.1875 C-473.25936035 261.07356934 -473.8312207 261.95963867 -474.42041016 262.87255859 C-509.55523172 317.50470526 -536.73171208 377.83248149 -551.6875 441.1875 C-552.07518555 442.79890869 -552.07518555 442.79890869 -552.47070312 444.44287109 C-559.46966972 473.82976217 -564.75424214 504.01222416 -566.6875 534.1875 C-566.7707251 535.32928711 -566.8539502 536.47107422 -566.93969727 537.64746094 C-567.98232039 552.97303377 -567.97600216 568.33326827 -568 583.6875 C-568.00144516 584.41440662 -568.00289032 585.14131325 -568.00437927 585.89024734 C-568.04438355 610.8520145 -566.97232694 635.41986118 -563.6875 660.1875 C-563.5220166 661.48445801 -563.3565332 662.78141602 -563.18603516 664.11767578 C-559.08948158 695.75008489 -552.44405755 726.82671689 -542.6875 757.1875 C-542.47740295 757.84441833 -542.26730591 758.50133667 -542.05084229 759.17816162 C-523.14243417 818.27186417 -497.24729798 876.39893058 -459.6875 926.1875 C-458.59305057 927.68213019 -457.50082061 929.17838677 -456.41015625 930.67578125 C-450.05943667 939.38300854 -443.65544307 947.96162738 -436.6875 956.1875 C-435.79515282 957.25355475 -434.90324952 958.31998115 -434.01171875 959.38671875 C-429.09809542 965.24839038 -424.10808885 971.02358664 -418.953125 976.67578125 C-417.68784095 978.07850133 -416.42894698 979.4873091 -415.19523621 980.9178772 C-411.06489443 985.70686013 -406.76307179 990.25893178 -402.28515625 994.72265625 C-401.60376083 995.40500839 -400.92236542 996.08736053 -400.22032166 996.79039001 C-398.79044259 998.22094437 -397.35932089 999.65025767 -395.92700195 1001.07836914 C-393.75552289 1003.24449074 -391.58943675 1005.41590174 -389.42382812 1007.58789062 C-388.02375798 1008.98729987 -386.62337762 1010.38639884 -385.22265625 1011.78515625 C-384.26758934 1012.74325951 -384.26758934 1012.74325951 -383.29322815 1013.72071838 C-378.91887553 1018.07273996 -374.37207263 1022.17262526 -369.6875 1026.1875 C-369.1554747 1026.64711624 -368.6234494 1027.10673248 -368.07530212 1027.58027649 C-359.80759333 1034.70475086 -351.34169619 1041.53992231 -342.6875 1048.1875 C-341.95144531 1048.75484863 -341.21539063 1049.32219727 -340.45703125 1049.90673828 C-327.89053223 1059.56269073 -315.01443018 1068.61240539 -301.6875 1077.1875 C-300.40987793 1078.01096924 -300.40987793 1078.01096924 -299.10644531 1078.85107422 C-285.34104337 1087.67108927 -271.17649909 1095.62248761 -256.6875 1103.1875 C-255.6655957 1103.72375 -254.64369141 1104.26 -253.59082031 1104.8125 C-199.03822758 1133.27769734 -139.80576904 1151.83712215 -78.9375 1160.5625 C-77.67573944 1160.74490738 -77.67573944 1160.74490738 -76.38848877 1160.93099976 C-51.21276128 1164.52263475 -26.21053576 1165.59766982 -0.8125 1165.5625 C-0.045392 1165.56226082 0.721716 1165.56202164 1.5120697 1165.56177521 C85.95618412 1165.52853533 168.1466582 1146.92217999 244.3125 1110.1875 C245.77792236 1109.48657227 245.77792236 1109.48657227 247.27294922 1108.77148438 C287.92498363 1089.24159429 325.81216185 1064.20924368 360.3125 1035.1875 C360.84407715 1034.74083984 361.3756543 1034.29417969 361.92333984 1033.83398438 C363.68211868 1032.35237986 365.43568476 1030.86482988 367.1875 1029.375 C367.70401123 1028.93792725 368.22052246 1028.50085449 368.75268555 1028.05053711 C379.89251192 1018.51101848 390.37761562 1008.28646381 400.72607422 997.90429688 C402.7029601 995.92199756 404.68521039 993.94517367 406.66796875 991.96875 C412.76094048 985.87930717 418.77742127 979.79643413 424.3125 973.1875 C425.28472848 972.06880677 426.2586655 970.95159592 427.234375 969.8359375 C434.18472951 961.81201009 440.85685956 953.61400017 447.3125 945.1875 C447.78123535 944.57712891 448.2499707 943.96675781 448.73291016 943.33789062 C498.38127263 878.4841921 534.51392418 803.76813763 553.3125 724.1875 C553.95831233 721.70832786 554.60414666 719.22916145 555.25 716.75 C555.95948493 713.90087627 556.64122478 711.04585267 557.3125 708.1875 C557.50457031 707.3742627 557.69664063 706.56102539 557.89453125 705.72314453 C561.23005224 691.25935716 563.26354621 676.72550851 565 662 C565.15382645 660.69835907 565.15382645 660.69835907 565.3107605 659.37042236 C565.91837582 654.17860865 566.490253 648.98390989 567.03521729 643.78515625 C567.21732163 642.07915556 567.4061978 640.37386148 567.60247803 638.66943359 C569.45248552 622.60302504 569.62398372 606.58975529 569.57324219 590.44042969 C569.56191267 586.81063595 569.56858726 583.18113778 569.58012581 579.55135441 C569.65353448 552.25873661 567.91862533 525.25669169 564.3125 498.1875 C564.11599854 496.71144287 564.11599854 496.71144287 563.91552734 495.20556641 C552.2394517 410.31047229 519.41788867 327.94843037 446.3125 221.1875 C445.64605469 220.33671875 444.97960938 219.4859375 444.29296875 218.609375 C436.71105345 209.03546973 428.80747801 199.72234794 420.578125 190.69921875 C419.31284095 189.29649867 418.05394698 187.8876909 416.82023621 186.4571228 C412.68989443 181.66813987 408.38807179 177.11606822 403.91015625 172.65234375 C403.22876083 171.96999161 402.54736542 171.28763947 401.84532166 170.58460999 C400.41544259 169.15405563 398.98432089 167.72474233 397.55200195 166.29663086 C395.38052289 164.13050926 393.21443675 161.95909826 391.04882812 159.78710938 C389.64875798 158.38770013 388.24837762 156.98860116 386.84765625 155.58984375 C386.21094498 154.95110825 385.5742337 154.31237274 384.91822815 153.65428162 C380.54387553 149.30226004 375.99707263 145.20237474 371.3125 141.1875 C370.7804747 140.72788376 370.2484494 140.26826752 369.70030212 139.79472351 C361.43259333 132.67024914 352.96669619 125.83507769 344.3125 119.1875 C343.20841797 118.33647705 343.20841797 118.33647705 342.08203125 117.46826172 C268.14895042 60.65893783 180.59966567 22.89973345 76.22558594 6.62304688 C74.33459198 6.34031697 72.44671138 6.03556409 70.56347656 5.70507812 C48.82720234 1.98217078 26.82080325 1.86068766 4.83764648 1.92675781 C1.0137471 1.9381618 -2.80987427 1.93135082 -6.63376427 1.91989517 C-31.15764372 1.85722033 -55.15617229 3.38914622 -79.4375 6.9375 Z " fill="#181818" transform="translate(955.6875,363.8125)"/>
<path d="M0 0 C25.08 0 50.16 0 76 0 C76 20.79 76 41.58 76 63 C50.92 63 25.84 63 0 63 C0 42.21 0 21.42 0 0 Z " fill="#1E448F" transform="translate(457,915)"/>
<path d="M0 0 C22.77 0 45.54 0 69 0 C69 21.12 69 42.24 69 64 C46.23 64 23.46 64 0 64 C0 42.88 0 21.76 0 0 Z " fill="#FAFDFD" transform="translate(852,785)"/>
<path d="M0 0 C59.73 0 119.46 0 181 0 C181 0.33 181 0.66 181 1 C121.6 1 62.2 1 1 1 C1 22.12 1 43.24 1 65 C31.36 65 61.72 65 93 65 C93 86.12 93 107.24 93 129 C263.28 129 433.56 129 609 129 C609 87.75 609 46.5 609 4 C606.03 4 603.06 4 600 4 C600 3.67 600 3.34 600 3 C603.3 3 606.6 3 610 3 C610 44.91 610 86.82 610 130 C439.06 130 268.12 130 92 130 C92 108.88 92 87.76 92 66 C61.97 66 31.94 66 1 66 C1 87.12 1 108.24 1 130 C-29.03 130 -59.06 130 -90 130 C-90 108.55 -90 87.1 -90 65 C-60.3 65 -30.6 65 0 65 C0 43.55 0 22.1 0 0 Z M-89 66 C-89 86.79 -89 107.58 -89 129 C-59.63 129 -30.26 129 0 129 C0 108.21 0 87.42 0 66 C-29.37 66 -58.74 66 -89 66 Z " fill="#61B1D3" transform="translate(758,1042)"/>
<path d="M0 0 C2.64 0 5.28 0 8 0 C8 40.92 8 81.84 8 124 C6.35 124 4.7 124 3 124 C2 120 1 116 0 112 C-0.66 112 -1.32 112 -2 112 C-2 76.69 -2 41.38 -2 5 C-1.34 5 -0.68 5 0 5 C0 3.35 0 1.7 0 0 Z M5 120 C6 122 6 122 6 122 Z " fill="#01ABD2" transform="translate(1359,1047)"/>
<path d="M0 0 C0.33 0 0.66 0 1 0 C1.0154612 1.15844925 1.0154612 1.15844925 1.03123474 2.34030151 C1.12910994 9.6095314 1.23161 16.87867421 1.33933926 24.14776421 C1.39456319 27.88510036 1.44798232 31.62244435 1.49731445 35.35986328 C1.54496587 38.96496615 1.59730892 42.56997285 1.65294075 46.17496109 C1.67336079 47.55208067 1.69207447 48.92922662 1.70907402 50.30639267 C1.73312547 52.231504 1.76374251 54.15652995 1.79467773 56.08154297 C1.81022202 57.17852509 1.8257663 58.2755072 1.84178162 59.4057312 C1.82896195 61.98453752 1.82896195 61.98453752 3 64 C2.34 64 1.68 64 1 64 C1 66.64 1 69.28 1 72 C-1.31 71.67 -3.62 71.34 -6 71 C-5.525625 70.54625 -5.05125 70.0925 -4.5625 69.625 C-2.90972192 68.06741796 -2.90972192 68.06741796 -2 66 C-2.95796478 66.01474869 -3.91592957 66.02949738 -4.90292358 66.04469299 C-17.39338343 66.23508154 -29.88407989 66.40526852 -42.375 66.5625 C-43.89095449 66.5815999 -43.89095449 66.5815999 -45.43753433 66.60108566 C-76.86174132 66.99100336 -108.26397023 67.00904885 -139.6875 66.5625 C-140.59014336 66.54968616 -141.49278671 66.53687233 -142.4227829 66.5236702 C-153.28218311 66.36784036 -164.14121597 66.19407132 -175 66 C-174.67 67.98 -174.34 69.96 -174 72 C-176.475 72.99 -176.475 72.99 -179 74 C-179 75.25659424 -179 76.51318848 -179 77.80786133 C-179 91.53857422 -179 105.26928711 -179 119 C-177.02 119.66 -175.04 120.32 -173 121 C-173.33 122.65 -173.66 124.3 -174 126 C-145.62 125.67 -117.24 125.34 -88 125 C-88 125.99 -88 126.98 -88 128 C-87.01 128.33 -86.02 128.66 -85 129 C-85 131.31 -85 133.62 -85 136 C-85.66 136 -86.32 136 -87 136 C-86.67 153.82 -86.34 171.64 -86 190 C-80.72 190 -75.44 190 -70 190 C-70 190.66 -70 191.32 -70 192 C-76.27 192 -82.54 192 -89 192 C-89 170.88 -89 149.76 -89 128 C-119.36 128 -149.72 128 -181 128 C-181 106.88 -181 85.76 -181 64 C-121.27 64 -61.54 64 0 64 C0 42.88 0 21.76 0 0 Z " fill="#0566A8" transform="translate(940,979)"/>
<path d="M0 0 C0.66 0 1.32 0 2 0 C2.33 14.85 2.66 29.7 3 45 C4.98 44.505 4.98 44.505 7 44 C7 44.99 7 45.98 7 47 C50.23 47 93.46 47 138 47 C138 46.34 138 45.68 138 45 C143.61 45.66 149.22 46.32 155 47 C155.33 46.01 155.66 45.02 156 44 C157.875 44.3125 157.875 44.3125 160 45 C162.31393721 48.47090582 162.22224518 49.67670117 162.13525391 53.7565918 C162.10499619 55.52808846 162.10499619 55.52808846 162.0741272 57.33537292 C162.04193085 58.61044205 162.0097345 59.88551117 161.9765625 61.19921875 C161.95153656 62.50454056 161.92651062 63.80986237 161.90072632 65.15473938 C161.83413337 68.62211269 161.75522864 72.08910073 161.67376709 75.55615234 C161.59278997 79.09522737 161.52344545 82.63452815 161.453125 86.17382812 C161.3134749 93.11615096 161.16081833 100.05813617 161 107 C161.66 107 162.32 107 163 107 C161.54273075 112.46475969 161.54273075 112.46475969 159.29959106 114.67694092 C156.34592524 116.37631889 154.35681679 116.36798972 150.95654297 116.35644531 C149.73361542 116.35944641 148.51068787 116.36244751 147.2507019 116.36553955 C145.91452635 116.35351381 144.57835485 116.34102989 143.2421875 116.328125 C141.85613206 116.32506104 140.47007352 116.32318977 139.08401489 116.32244873 C136.17031131 116.31784374 133.25688376 116.30343286 130.34326172 116.28125 C126.66313199 116.25333219 122.98322068 116.24214845 119.30299568 116.23745632 C105.69352731 116.21809815 92.1058393 116.17744148 78.52636719 115.16723633 C72.97071422 114.90376206 67.52415123 115.36560101 62 116 C61.0735672 119.14499028 60.87853027 121.95447249 60.88647461 125.22753906 C60.88655014 126.26831604 60.88662567 127.30909302 60.88670349 128.38140869 C60.89186478 129.49820007 60.89702606 130.61499146 60.90234375 131.765625 C60.90446617 133.48842682 60.90446617 133.48842682 60.90663147 135.24603271 C60.91222857 138.91404831 60.92478056 142.58200285 60.9375 146.25 C60.94251537 148.73697829 60.94707822 151.22395753 60.95117188 153.7109375 C60.96219705 159.8073125 60.97893231 165.90365189 61 172 C62.32 172.66 63.64 173.32 65 174 C64.67 174.66 64.34 175.32 64 176 C62.02 176 60.04 176 58 176 C58 155.21 58 134.42 58 113 C91 113 124 113 158 113 C158 91.55 158 70.1 158 48 C105.86 48 53.72 48 0 48 C0 32.16 0 16.32 0 0 Z " fill="#145F9E" transform="translate(611,737)"/>
<path d="M0 0 C174.24 0 348.48 0 528 0 C528 0.33 528 0.66 528 1 C480.96116489 1.16253018 433.92231234 1.31951004 386.8834458 1.47266474 C380.38706052 1.4938251 373.89067565 1.5151095 367.39429092 1.53643799 C211.34944464 2.04835425 211.34944464 2.04835425 147.19921875 2.03125 C146.13081898 2.03100264 145.06241921 2.03075527 143.9616437 2.03050041 C124.90113271 2.02578381 105.84064456 2.01226355 86.78016442 1.97678709 C80.16559192 1.96449227 73.55101938 1.95495866 66.93643981 1.94738436 C63.27051015 1.94289948 59.60460979 1.93652957 55.93869591 1.92469788 C40.92408166 1.87637873 25.98668276 2.03109553 11 3 C10.34 4.98 9.68 6.96 9 9 C6.69 9 4.38 9 2 9 C2 10.65 2 12.3 2 14 C1.01 14.495 1.01 14.495 0 15 C0 10.05 0 5.1 0 0 Z " fill="#216E9C" transform="translate(611,721)"/>
<path d="M0 0 C6.13481424 1.60527639 11.15638133 4.89140267 16.5 8.1875 C18.0154541 9.11755859 18.0154541 9.11755859 19.56152344 10.06640625 C40.9524851 23.31191313 61.71381873 37.82646191 81 54 C82.83274825 55.47989155 84.66609465 56.9590426 86.5 58.4375 C91.29409885 62.35621419 95.88241488 66.46350119 100.4375 70.65625 C102.65684276 72.68613667 104.90672034 74.66495498 107.1875 76.625 C110.6309967 79.61263665 113.82119184 82.80063123 117.015625 86.05078125 C118.86232036 87.86475957 120.76573676 89.52711444 122.75 91.1875 C128.05065691 95.75596501 132.63248684 101.00345886 137.32763672 106.17480469 C139.05725479 108.06248712 140.8079219 109.92825768 142.56640625 111.7890625 C149.35542826 118.97361485 155.83430663 126.2669334 162 134 C162.97979687 135.19042953 163.96171168 136.37911783 164.9453125 137.56640625 C212.50043928 195.11742848 246.27711064 261.53645036 270 332 C270.34417969 333.01433105 270.68835937 334.02866211 271.04296875 335.07373047 C271.32785156 335.95561035 271.61273437 336.83749023 271.90625 337.74609375 C272.26686523 338.85295532 272.26686523 338.85295532 272.63476562 339.98217773 C273.05284028 342.29192841 272.72494664 343.7881031 272 346 C271.69932617 345.07179443 271.39865234 344.14358887 271.08886719 343.18725586 C248.22225312 272.78963964 216.85732061 207.51545704 171 149 C170.33355469 148.14921875 169.66710938 147.2984375 168.98046875 146.421875 C161.39855345 136.84796973 153.49497801 127.53484794 145.265625 118.51171875 C143.41730937 116.4626378 141.60989686 114.38923886 139.80737305 112.30029297 C136.28707662 108.27527604 132.60265903 104.45742194 128.81640625 100.68359375 C128.15720688 100.02343765 127.49800751 99.36328156 126.8188324 98.68312073 C125.43603165 97.29964494 124.05198924 95.91740917 122.66674805 94.53637695 C120.56769657 92.44268331 118.4740406 90.34370126 116.38085938 88.24414062 C115.02636214 86.89030429 113.67155469 85.53677825 112.31640625 84.18359375 C111.70156876 83.56673203 111.08673126 82.9498703 110.45326233 82.3143158 C106.13002464 78.01388779 101.62798206 73.96920296 97 70 C96.46769272 69.54010178 95.93538544 69.08020355 95.38694763 68.60636902 C87.11921339 61.48251552 78.65389817 54.64734876 70 48 C69.26394531 47.43265137 68.52789063 46.86530273 67.76953125 46.28076172 C50.19809845 32.77907606 31.9175125 20.62083998 12.94921875 9.18115234 C10.07396527 7.43885822 7.22105788 5.6646767 4.375 3.875 C3.51648437 3.33617187 2.65796875 2.79734375 1.7734375 2.2421875 C1.18820312 1.83226562 0.60296875 1.42234375 0 1 C0 0.67 0 0.34 0 0 Z " fill="#121212" transform="translate(1230,436)"/>
<path d="M0 0 C4.62 0 9.24 0 14 0 C14 12.87 14 25.74 14 39 C9.38 39 4.76 39 0 39 C0 26.13 0 13.26 0 0 Z " fill="#EDFAFB" transform="translate(1140,1020)"/>
<path d="M0 0 C4.62 0 9.24 0 14 0 C14 12.87 14 25.74 14 39 C9.38 39 4.76 39 0 39 C0 26.13 0 13.26 0 0 Z " fill="#EFFAFA" transform="translate(1140,943)"/>
<path d="M0 0 C4.62 0 9.24 0 14 0 C14 12.54 14 25.08 14 38 C9.38 38 4.76 38 0 38 C0 25.46 0 12.92 0 0 Z " fill="#ECFAFB" transform="translate(1140,1098)"/>
<path d="M0 0 C4.62 0 9.24 0 14 0 C14 12.54 14 25.08 14 38 C9.38 38 4.76 38 0 38 C0 25.46 0 12.92 0 0 Z " fill="#EFFBFB" transform="translate(1140,866)"/>
<path d="M0 0 C4.62 0 9.24 0 14 0 C14 12.54 14 25.08 14 38 C9.38 38 4.76 38 0 38 C0 25.46 0 12.92 0 0 Z " fill="#F1FCFC" transform="translate(1140,788)"/>
<path d="M0 0 C33.33 0 66.66 0 101 0 C101 0.33 101 0.66 101 1 C68 1 35 1 1 1 C1 21.79 1 42.58 1 64 C7.435 63.505 7.435 63.505 14 63 C16.75573316 62.92749618 19.51278737 62.8896419 22.26945496 62.89993286 C23.00194012 62.90119513 23.73442527 62.90245741 24.48910695 62.90375793 C26.89015916 62.90904205 29.29111431 62.92154984 31.69213867 62.93408203 C33.43462997 62.93928666 35.17712281 62.94399246 36.9196167 62.94824219 C40.64410523 62.95811189 44.36856736 62.97093246 48.09303856 62.98596573 C53.97968432 63.00917209 59.86632681 63.02237216 65.75300598 63.03366089 C82.48227301 63.06698592 99.21148835 63.10898079 115.94067383 63.17138672 C125.20101045 63.20584729 134.46131046 63.2296925 143.7217043 63.24159515 C149.57779334 63.24970682 155.4336419 63.27098075 161.28965318 63.30180001 C164.91929594 63.31775015 168.54886863 63.32122018 172.17854309 63.32102966 C173.86607739 63.32346073 175.55361303 63.33108054 177.2410984 63.34415817 C179.53675099 63.36121469 181.8316743 63.35999636 184.12736511 63.35403442 C185.41389575 63.35809862 186.70042639 63.36216282 188.0259428 63.36635017 C189.49810112 63.18500684 189.49810112 63.18500684 191 63 C191.66 62.01 192.32 61.02 193 60 C196.125 59.8125 196.125 59.8125 199 60 C199.33 59.01 199.66 58.02 200 57 C200.66 57 201.32 57 202 57 C202 59.64 202 62.28 202 65 C201.01 65.33 200.02 65.66 199 66 C196.95891203 69.00791911 196.80121964 71.42195344 197 75 C197.66 75.33 198.32 75.66 199 76 C197.68 77.65 196.36 79.3 195 81 C195 75.72 195 70.44 195 65 C130.65 65 66.3 65 0 65 C0 43.55 0 22.1 0 0 Z " fill="#4B8DBE" transform="translate(668,849)"/>
<path d="M0 0 C0.33 0 0.66 0 1 0 C1.0154612 1.15844925 1.0154612 1.15844925 1.03123474 2.34030151 C1.12910994 9.6095314 1.23161 16.87867421 1.33933926 24.14776421 C1.39456319 27.88510036 1.44798232 31.62244435 1.49731445 35.35986328 C1.54496587 38.96496615 1.59730892 42.56997285 1.65294075 46.17496109 C1.67336079 47.55208067 1.69207447 48.92922662 1.70907402 50.30639267 C1.73312547 52.231504 1.76374251 54.15652995 1.79467773 56.08154297 C1.81022202 57.17852509 1.8257663 58.2755072 1.84178162 59.4057312 C1.82896195 61.98453752 1.82896195 61.98453752 3 64 C2.34 64 1.68 64 1 64 C1 66.64 1 69.28 1 72 C-1.31 71.67 -3.62 71.34 -6 71 C-5.525625 70.54625 -5.05125 70.0925 -4.5625 69.625 C-2.90972192 68.06741796 -2.90972192 68.06741796 -2 66 C-3.10230453 66.01252808 -4.20460907 66.02505615 -5.34031677 66.03796387 C-15.79819105 66.15669515 -26.25607641 66.2744056 -36.71397305 66.39115143 C-42.08869943 66.45118359 -47.46342149 66.51155841 -52.83813477 66.57275391 C-58.03825542 66.63194829 -63.23838597 66.69019351 -68.43852425 66.74781799 C-70.40893994 66.76981246 -72.37935204 66.79213211 -74.34976006 66.81480408 C-86.23379275 66.95129235 -98.11516312 67.03087241 -110 67 C-110 66.34 -110 65.68 -110 65 C-133.43 65 -156.86 65 -181 65 C-181 64.67 -181 64.34 -181 64 C-121.27 64 -61.54 64 0 64 C0 42.88 0 21.76 0 0 Z " fill="#1F76A1" transform="translate(940,979)"/>
<path d="M0 0 C23.43 0 46.86 0 71 0 C71.33 23.1 71.66 46.2 72 70 C70.68 70.33 69.36 70.66 68 71 C67.67 71.66 67.34 72.32 67 73 C64.69 73 62.38 73 60 73 C60 71.35 60 69.7 60 68 C53.07 68 46.14 68 39 68 C39 67.34 39 66.68 39 66 C26.13 66 13.26 66 0 66 C0 65.67 0 65.34 0 65 C22.77 65 45.54 65 69 65 C69 43.88 69 22.76 69 1 C46.23 1 23.46 1 0 1 C0 0.67 0 0.34 0 0 Z " fill="#2E87B3" transform="translate(852,784)"/>
<path d="M0 0 C0.99 0 1.98 0 3 0 C3 0.66 3 1.32 3 2 C4.98 2.33 6.96 2.66 9 3 C9 3.33 9 3.66 9 4 C-48.75 4 -106.5 4 -166 4 C-166 3.34 -166 2.68 -166 2 C-111.22 2 -56.44 2 0 2 C0 1.34 0 0.68 0 0 Z " fill="#1366A3" transform="translate(849,909)"/>
<path d="M0 0 C0 0.33 0 0.66 0 1 C-1.19238281 1.19335938 -2.38476562 1.38671875 -3.61328125 1.5859375 C-5.17975112 1.84857916 -6.74615395 2.11162088 -8.3125 2.375 C-9.09818359 2.50132812 -9.88386719 2.62765625 -10.69335938 2.7578125 C-11.45068359 2.88671875 -12.20800781 3.015625 -12.98828125 3.1484375 C-13.68477783 3.26364746 -14.38127441 3.37885742 -15.09887695 3.49755859 C-17.30828759 3.97175121 -17.30828759 3.97175121 -20 6 C-21.75557102 6.55119969 -23.52927374 7.04617755 -25.3125 7.5 C-29.26527129 8.53275324 -33.14271147 9.64473646 -37 11 C-37 11.66 -37 12.32 -37 13 C-37.72316406 13.26296875 -38.44632813 13.5259375 -39.19140625 13.796875 C-53.91309813 20.10324649 -67.64825817 35.29651634 -74.6875 49.375 C-76 52 -76 52 -77.5625 53.5 C-79.65315066 55.68154851 -80.1739371 58.14055149 -81 61 C-81.33 61 -81.66 61 -82 61 C-82.125 57.625 -82.125 57.625 -82 54 C-81.34 53.34 -80.68 52.68 -80 52 C-79.31867549 50.33927151 -78.65257873 48.672233 -78 47 C-77.34 46.01 -76.68 45.02 -76 44 C-77.65 44 -79.3 44 -81 44 C-81 43.01 -81 42.02 -81 41 C-79.35 41 -77.7 41 -76 41 C-75.67 40.01 -75.34 39.02 -75 38 C-72.525 37.505 -72.525 37.505 -70 37 C-70 35.68 -70 34.36 -70 33 C-69.34 33 -68.68 33 -68 33 C-68 32.34 -68 31.68 -68 31 C-62.80769231 26.26923077 -62.80769231 26.26923077 -59 25 C-57.78130071 22.49552484 -57.78130071 22.49552484 -57 20 C-57.66 19.67 -58.32 19.34 -59 19 C-57.948125 19.103125 -56.89625 19.20625 -55.8125 19.3125 C-51.05626541 18.92264471 -50.03245507 17.53786424 -47 14 C-46.01 13.34 -45.02 12.68 -44 12 C-44 11.34 -44 10.68 -44 10 C-42.88625 9.54625 -41.7725 9.0925 -40.625 8.625 C-37.03800992 7.27534014 -37.03800992 7.27534014 -35 5 C-32.66666667 5 -30.33333333 5 -28 5 C-27.34 4.34 -26.68 3.68 -26 3 C-17.38604128 0.15908775 -9.00322323 -0.39785111 0 0 Z " fill="#19AED0" transform="translate(1357,847)"/>
<path d="M0 0 C0.66 0 1.32 0 2 0 C2.33 14.85 2.66 29.7 3 45 C4.98 44.505 4.98 44.505 7 44 C7 44.99 7 45.98 7 47 C50.23 47 93.46 47 138 47 C138 46.34 138 45.68 138 45 C144.6 45.66 151.2 46.32 158 47 C158 47.33 158 47.66 158 48 C105.86 48 53.72 48 0 48 C0 32.16 0 16.32 0 0 Z " fill="#395C83" transform="translate(611,737)"/>
<path d="M0 0 C0.66 0 1.32 0 2 0 C2 0.99 2 1.98 2 3 C2.99 3.33 3.98 3.66 5 4 C5 6.31 5 8.62 5 11 C4.34 11 3.68 11 3 11 C3.33 28.82 3.66 46.64 4 65 C9.28 65 14.56 65 20 65 C20 65.66 20 66.32 20 67 C13.73 67 7.46 67 1 67 C1 45.88 1 24.76 1 3 C-29.36 3 -59.72 3 -91 3 C-91 2.67 -91 2.34 -91 2 C-60.97 2 -30.94 2 0 2 C0 1.34 0 0.68 0 0 Z " fill="#1C73A8" transform="translate(850,1104)"/>
<path d="M0 0 C1.875 0.3125 1.875 0.3125 4 1 C6.31393721 4.47090582 6.22224518 5.67670117 6.13525391 9.7565918 C6.11508209 10.93758957 6.09491028 12.11858734 6.0741272 13.33537292 C6.02583267 15.24797661 6.02583267 15.24797661 5.9765625 17.19921875 C5.95153656 18.50454056 5.92651062 19.80986237 5.90072632 21.15473938 C5.83413337 24.62211269 5.75522864 28.08910073 5.67376709 31.55615234 C5.59278997 35.09522737 5.52344545 38.63452815 5.453125 42.17382812 C5.3134749 49.11615096 5.16081833 56.05813617 5 63 C5.66 63 6.32 63 7 63 C5.375 68.75 5.375 68.75 2 71 C2 48.56 2 26.12 2 3 C1.01 3 0.02 3 -1 3 C-0.67 2.01 -0.34 1.02 0 0 Z " fill="#2173AB" transform="translate(767,781)"/>
<path d="M0 0 C0.90105469 0.19464844 1.80210938 0.38929687 2.73046875 0.58984375 C3.41753906 0.74582031 4.10460938 0.90179687 4.8125 1.0625 C4.8125 0.4025 4.8125 -0.2575 4.8125 -0.9375 C7.95874993 -1.19968749 9.43087017 -1.18504367 12.125 0.5625 C12.681875 1.0575 13.23875 1.5525 13.8125 2.0625 C12.8225 3.7125 11.8325 5.3625 10.8125 7.0625 C11.4725 7.0625 12.1325 7.0625 12.8125 7.0625 C13.9375 11.8125 13.9375 11.8125 12.8125 14.0625 C13.8025 14.3925 14.7925 14.7225 15.8125 15.0625 C15.8125 15.7225 15.8125 16.3825 15.8125 17.0625 C13.8325 17.3925 11.8525 17.7225 9.8125 18.0625 C9.4825 25.6525 9.1525 33.2425 8.8125 41.0625 C8.4825 41.0625 8.1525 41.0625 7.8125 41.0625 C7.8125 28.5225 7.8125 15.9825 7.8125 3.0625 C3.1925 3.0625 -1.4275 3.0625 -6.1875 3.0625 C-6.1875 15.2725 -6.1875 27.4825 -6.1875 40.0625 C-6.5175 40.0625 -6.8475 40.0625 -7.1875 40.0625 C-7.5175 32.8025 -7.8475 25.5425 -8.1875 18.0625 C-8.5175 18.0625 -8.8475 18.0625 -9.1875 18.0625 C-10.77062359 4.84127865 -10.77062359 4.84127865 -8.1875 0.0625 C-4.80475734 -1.06508089 -3.41971777 -0.75500262 0 0 Z " fill="#13ACD1" transform="translate(1146.1875,1094.9375)"/>
<path d="M0 0 C25.41 0 50.82 0 77 0 C77 0.33 77 0.66 77 1 C52.25 1 27.5 1 2 1 C2 20.8 2 40.6 2 61 C3.98 61 5.96 61 8 61 C8.33 61.66 8.66 62.32 9 63 C6.03 63 3.06 63 0 63 C0 42.21 0 21.42 0 0 Z " fill="#225B90" transform="translate(669,1108)"/>
<path d="M0 0 C23.43 0 46.86 0 71 0 C71 0.33 71 0.66 71 1 C48.23 1.33 25.46 1.66 2 2 C2 2.66 2 3.32 2 4 C4.31 4 6.62 4 9 4 C8.01 4.495 8.01 4.495 7 5 C7 5.66 7 6.32 7 7 C5.35 7 3.7 7 2 7 C2.00444122 7.6072139 2.00888245 8.2144278 2.01345825 8.84004211 C2.05764612 15.15009207 2.08784749 21.4600982 2.10986328 27.77026367 C2.11993155 30.12640162 2.13358706 32.48252704 2.15087891 34.83862305 C2.17509076 38.22187386 2.18647478 41.60495972 2.1953125 44.98828125 C2.20563507 46.04461258 2.21595764 47.10094391 2.22659302 48.18928528 C2.22674408 49.17007553 2.22689514 50.15086578 2.22705078 51.16137695 C2.231492 52.02519485 2.23593323 52.88901276 2.24050903 53.77900696 C2 56 2 56 0 59 C0 39.53 0 20.06 0 0 Z " fill="#144F94" transform="translate(611,980)"/>
<path d="M0 0 C0.33 0 0.66 0 1 0 C1 12.54 1 25.08 1 38 C5.62 38 10.24 38 15 38 C15 25.46 15 12.92 15 0 C15.33 0 15.66 0 16 0 C16 10.56 16 21.12 16 32 C19.465 31.505 19.465 31.505 23 31 C22.85957123 32.64630328 22.71250671 34.29204179 22.5625 35.9375 C22.44068359 37.31228516 22.44068359 37.31228516 22.31640625 38.71484375 C22 41 22 41 21 42 C19.00041636 42.04080783 16.99954746 42.04254356 15 42 C15 41.01 15 40.02 15 39 C7.26767987 39.49330865 7.26767987 39.49330865 0 42 C-0.33 40.35 -0.66 38.7 -1 37 C-1.66 37 -2.32 37 -3 37 C-3 35.35 -3 33.7 -3 32 C-2.34 31.67 -1.68 31.34 -1 31 C-0.67 20.77 -0.34 10.54 0 0 Z " fill="#0DABD4" transform="translate(1139,1021)"/>
<path d="M0 0 C0.33 0.66 0.66 1.32 1 2 C3.02463255 2.65213292 3.02463255 2.65213292 5 3 C5.33 4.65 5.66 6.3 6 8 C29.1 8.33 52.2 8.66 76 9 C75.67 9.66 75.34 10.32 75 11 C50.25 11 25.5 11 0 11 C0 7.37 0 3.74 0 0 Z " fill="#1979A8" transform="translate(863,967)"/>
<path d="M0 0 C6.93 0 13.86 0 21 0 C21 0.66 21 1.32 21 2 C21.99 2 22.98 2 24 2 C24 3.65 24 5.3 24 7 C22.35 7.33 20.7 7.66 19 8 C18.25983116 12.04063703 17.8316714 15.95082109 17.68359375 20.0546875 C17.64169922 21.16328125 17.59980469 22.271875 17.55664062 23.4140625 C17.51732422 24.55617188 17.47800781 25.69828125 17.4375 26.875 C17.39431641 28.0403125 17.35113281 29.205625 17.30664062 30.40625 C17.20098371 33.27072625 17.09888201 36.13528321 17 39 C16.67 39 16.34 39 16 39 C16 26.46 16 13.92 16 1 C11.38 1 6.76 1 2 1 C2 13.54 2 26.08 2 39 C1.67 39 1.34 39 1 39 C-0.06378669 34.68227756 -0.1294216 30.49257744 -0.09765625 26.07421875 C-0.0962413 25.32662796 -0.09482635 24.57903717 -0.09336853 23.80879211 C-0.08779764 21.43498635 -0.0752506 19.06127697 -0.0625 16.6875 C-0.05748123 15.07226699 -0.05291899 13.4570325 -0.04882812 11.84179688 C-0.03869117 7.89446478 -0.0191103 3.94733953 0 0 Z " fill="#27ABCB" transform="translate(1138,865)"/>
<path d="M0 0 C5.61 0.33 11.22 0.66 17 1 C17 1.33 17 1.66 17 2 C10.565 2.495 10.565 2.495 4 3 C3.14914295 6.4034282 2.8781224 8.78643038 2.88647461 12.22753906 C2.88655014 13.26831604 2.88662567 14.30909302 2.88670349 15.38140869 C2.89186478 16.49820007 2.89702606 17.61499146 2.90234375 18.765625 C2.9037587 19.91415955 2.90517365 21.06269409 2.90663147 22.24603271 C2.91222857 25.91404831 2.92478056 29.58200285 2.9375 33.25 C2.94251537 35.73697829 2.94707822 38.22395753 2.95117188 40.7109375 C2.96219705 46.8073125 2.97893231 52.90365189 3 59 C4.32 59.66 5.64 60.32 7 61 C6.67 61.66 6.34 62.32 6 63 C4.02 63 2.04 63 0 63 C0 42.21 0 21.42 0 0 Z " fill="#225891" transform="translate(669,850)"/>
<path d="M0 0 C2.64 0 5.28 0 8 0 C7.67 0.66 7.34 1.32 7 2 C6.01 2 5.02 2 4 2 C4 2.66 4 3.32 4 4 C4.99 4.33 5.98 4.66 7 5 C6 8 6 8 5 10 C5.495 10.928125 5.495 10.928125 6 11.875 C7 14 7 14 6.6875 16.125 C6 18 6 18 5 20 C5.66 20 6.32 20 7 20 C6.625 21.9375 6.625 21.9375 6 24 C5.34 24.33 4.68 24.66 4 25 C3.34 24.67 2.68 24.34 2 24 C2 25.98 2 27.96 2 30 C1.01 30.33 0.02 30.66 -1 31 C-0.67 20.77 -0.34 10.54 0 0 Z " fill="#02A5D1" transform="translate(1155,722)"/>
<path d="M0 0 C0.33 0 0.66 0 1 0 C1.33 42.24 1.66 84.48 2 128 C-3.28 128.33 -8.56 128.66 -14 129 C-14.66 128.34 -15.32 127.68 -16 127 C-11.05 126.67 -6.1 126.34 -1 126 C-0.67 84.42 -0.34 42.84 0 0 Z " fill="#F1F7F8" transform="translate(1368,1046)"/>
<path d="M0 0 C0.33 0 0.66 0 1 0 C1 12.54 1 25.08 1 38 C5.62 38 10.24 38 15 38 C15 25.46 15 12.92 15 0 C15.33 0 15.66 0 16 0 C16 11.55 16 23.1 16 35 C18.31 35 20.62 35 23 35 C22.67 35.99 22.34 36.98 22 38 C19.5 39.125 19.5 39.125 17 40 C16.67 40.33 16.34 40.66 16 41 C14.14712498 41.07226502 12.29166122 41.0838122 10.4375 41.0625 C9.42558594 41.05347656 8.41367188 41.04445313 7.37109375 41.03515625 C6.19740234 41.01775391 6.19740234 41.01775391 5 41 C4.67 41.66 4.34 42.32 4 43 C4 42.34 4 41.68 4 41 C2.68 41 1.36 41 0 41 C0 27.47 0 13.94 0 0 Z " fill="#28B2D2" transform="translate(1139,788)"/>
<path d="M0 0 C2.86708013 2.86708013 4.32067135 6.27271842 6.125 9.875 C6.49753906 10.59558594 6.87007812 11.31617188 7.25390625 12.05859375 C7.60582031 12.75855469 7.95773437 13.45851563 8.3203125 14.1796875 C8.64273926 14.81632324 8.96516602 15.45295898 9.29736328 16.10888672 C10 18 10 18 10 22 C10.66 22 11.32 22 12 22 C13.40268922 23.69491614 14.72390346 25.457835 16 27.25 C16.70125 28.22453125 17.4025 29.1990625 18.125 30.203125 C19.62191333 32.43602072 20.88577861 34.56264072 22 37 C21.01 37 20.02 37 19 37 C18.67 36.01 18.34 35.02 18 34 C15.46444291 32.8026536 12.93794841 31.98166657 10.25 31.1875 C8 30 8 30 7.125 27.8125 C6.97472006 24.43120125 7.41284505 21.3272114 8 18 C7.34 18 6.68 18 6 18 C5.91363281 17.37351562 5.82726563 16.74703125 5.73828125 16.1015625 C5.31373291 13.63217125 4.85727584 11.35643158 4 9 C1.52985528 7.32386813 1.52985528 7.32386813 -1 7 C-0.67 4.69 -0.34 2.38 0 0 Z M5 28 C5.66 28.33 6.32 28.66 7 29 C6.01 29.99 5.02 30.98 4 32 C4.33 30.68 4.66 29.36 5 28 Z " fill="#08ADD2" transform="translate(1272,977)"/>
<path d="M0 0 C1.48318685 2.80602917 1.06440299 4.21536295 0.15625 7.1875 C-1.16375 7.5175 -2.48375 7.8475 -3.84375 8.1875 C-4.17375 19.0775 -4.50375 29.9675 -4.84375 41.1875 C-5.17375 41.1875 -5.50375 41.1875 -5.84375 41.1875 C-5.84375 28.3175 -5.84375 15.4475 -5.84375 2.1875 C-10.46375 2.1875 -15.08375 2.1875 -19.84375 2.1875 C-19.84375 1.8575 -19.84375 1.5275 -19.84375 1.1875 C-17.20375 1.1875 -14.56375 1.1875 -11.84375 1.1875 C-11.84375 0.5275 -11.84375 -0.1325 -11.84375 -0.8125 C-10.24387764 -1.08865058 -8.638417 -1.33257625 -7.03125 -1.5625 C-6.13792969 -1.70171875 -5.24460937 -1.8409375 -4.32421875 -1.984375 C-1.84375 -1.8125 -1.84375 -1.8125 0 0 Z " fill="#18ADD1" transform="translate(1159.84375,940.8125)"/>
<path d="M0 0 C0.66 0 1.32 0 2 0 C3.28744114 1.45029169 4.50236776 2.96497157 5.6875 4.5 C18.49987841 20.45465477 33.48600127 34.61528863 48 49 C44.38462432 49 43.99712389 48.4082652 41.453125 46 C40.4321875 45.03900391 40.4321875 45.03900391 39.390625 44.05859375 C38.68421875 43.37925781 37.9778125 42.69992187 37.25 42 C36.5590625 41.35160156 35.868125 40.70320313 35.15625 40.03515625 C31.03710489 36.1250655 27.21579409 32.05958811 23.51855469 27.75 C21.76864671 25.7333858 19.92041816 23.85419685 18 22 C14.75391023 18.79769179 11.7102564 15.48390493 8.7421875 12.0234375 C7.514262 10.59728187 6.26758665 9.18716479 5.0078125 7.7890625 C4.36585938 7.07492187 3.72390625 6.36078125 3.0625 5.625 C2.18271484 4.65433594 2.18271484 4.65433594 1.28515625 3.6640625 C0 2 0 2 0 0 Z " fill="#171717" transform="translate(524,1327)"/>
<path d="M0 0 C10.23 0 20.46 0 31 0 C31 0.33 31 0.66 31 1 C21.1 1.495 21.1 1.495 11 2 C10.34 3.98 9.68 5.96 9 8 C6.69 8 4.38 8 2 8 C2 9.65 2 11.3 2 13 C1.01 13.495 1.01 13.495 0 14 C0 9.38 0 4.76 0 0 Z " fill="#174F94" transform="translate(611,722)"/>
<path d="M0 0 C23.43 0 46.86 0 71 0 C71 0.33 71 0.66 71 1 C49.55 1 28.1 1 6 1 C6.33 2.98 6.66 4.96 7 7 C5.02 7.66 3.04 8.32 1 9 C0.67 6.03 0.34 3.06 0 0 Z " fill="#15649C" transform="translate(759,1044)"/>
<path d="M0 0 C0.66 0 1.32 0 2 0 C2.33 14.85 2.66 29.7 3 45 C4.98 44.505 4.98 44.505 7 44 C7 44.99 7 45.98 7 47 C4.69 47 2.38 47 0 47 C0 31.49 0 15.98 0 0 Z " fill="#164E94" transform="translate(611,737)"/>
<path d="M0 0 C0.33 0 0.66 0 1 0 C1 9.57 1 19.14 1 29 C-3.62 29 -8.24 29 -13 29 C-13 19.76 -13 10.52 -13 1 C-12.67 1 -12.34 1 -12 1 C-12 9.58 -12 18.16 -12 27 C-8.37 27 -4.74 27 -1 27 C-1.01160156 25.21851563 -1.02320313 23.43703125 -1.03515625 21.6015625 C-1.04453335 19.27604271 -1.05363363 16.95052179 -1.0625 14.625 C-1.07087891 13.449375 -1.07925781 12.27375 -1.08789062 11.0625 C-1.09111328 9.94101562 -1.09433594 8.81953125 -1.09765625 7.6640625 C-1.10289307 6.62717285 -1.10812988 5.5902832 -1.11352539 4.52197266 C-1 2 -1 2 0 0 Z " fill="#C7F5F8" transform="translate(1153,720)"/>
<path d="M0 0 C1.31878578 0.76002917 2.6298684 1.53343653 3.9375 2.3125 C4.66839844 2.74175781 5.39929687 3.17101562 6.15234375 3.61328125 C8 5 8 5 9 8 C9.99 8.33 10.98 8.66 12 9 C12.67675781 9.93972656 12.67675781 9.93972656 13.3671875 10.8984375 C15.35728498 13.45985483 17.1867883 14.2972367 20.125 15.625 C24.89868668 17.79737336 24.89868668 17.79737336 26 20 C24.35 20.33 22.7 20.66 21 21 C21 20.01 21 19.02 21 18 C19.9275 17.9175 18.855 17.835 17.75 17.75 C13.57589709 16.91517942 12.83845939 15.93307471 10 13 C8.33380554 12.9603287 6.66608987 12.95615553 5 13 C3 10 3 10 3 6 C1.5833253 4.2488427 1.5833253 4.2488427 0 3 C-0.33 3.66 -0.66 4.32 -1 5 C-0.67 3.35 -0.34 1.7 0 0 Z " fill="#0AAED5" transform="translate(1294,1014)"/>
<path d="M0 0 C0.66 0 1.32 0 2 0 C2.33 0.66 2.66 1.32 3 2 C22.305 2.495 22.305 2.495 42 3 C42 3.66 42 4.32 42 5 C41.38068604 4.99476318 40.76137207 4.98952637 40.12329102 4.98413086 C37.26970467 4.96311927 34.41613469 4.95026386 31.5625 4.9375 C30.58861328 4.92912109 29.61472656 4.92074219 28.61132812 4.91210938 C24.00985832 4.89671984 19.53350323 4.98965349 14.96484375 5.56640625 C11 6 11 6 8 5 C7.01 5.99 6.02 6.98 5 8 C5 7.01 5 6.02 5 5 C4.34 5 3.68 5 3 5 C2.67 5.99 2.34 6.98 2 8 C2 7.01 2 6.02 2 5 C1.34 5 0.68 5 0 5 C0 3.35 0 1.7 0 0 Z " fill="#1076AF" transform="translate(849,847)"/>
<path d="M0 0 C0.99 0 1.98 0 3 0 C2.81824219 0.58265625 2.63648438 1.1653125 2.44921875 1.765625 C1.92000793 3.49166644 1.40305132 5.22149356 0.89575195 6.95410156 C0.3459095 8.82377571 -0.2204399 10.68880862 -0.81445312 12.54492188 C-3.51057985 21.79554215 -3.34228671 30.71552794 -3.1875 40.25 C-3.17241456 41.88149796 -3.15873304 43.51300953 -3.14648438 45.14453125 C-3.1138102 49.09669732 -3.06224574 53.04819362 -3 57 C-3.66 57 -4.32 57 -5 57 C-5.04961359 51.14674094 -5.08582065 45.29360561 -5.10986328 39.44018555 C-5.11989136 37.45090603 -5.13351717 35.46164114 -5.15087891 33.47241211 C-5.17526791 30.60526915 -5.18651526 27.7383219 -5.1953125 24.87109375 C-5.20563507 23.98852402 -5.21595764 23.10595428 -5.22659302 22.19664001 C-5.22751794 17.05141637 -4.64976955 12.8767439 -3 8 C-2.65864073 6.66869885 -2.32074044 5.33641852 -2 4 C-1.34 4 -0.68 4 0 4 C0 2.68 0 1.36 0 0 Z " fill="#27B7D7" transform="translate(1272,909)"/>
<path d="M0 0 C1.15242188 0.00902344 2.30484375 0.01804687 3.4921875 0.02734375 C4.36101562 0.03894531 5.22984375 0.05054688 6.125 0.0625 C6.125 0.3925 6.125 0.7225 6.125 1.0625 C4.93261719 1.25585938 3.74023438 1.44921875 2.51171875 1.6484375 C0.94524888 1.91107916 -0.62115395 2.17412088 -2.1875 2.4375 C-2.97318359 2.56382812 -3.75886719 2.69015625 -4.56835938 2.8203125 C-5.32568359 2.94921875 -6.08300781 3.078125 -6.86328125 3.2109375 C-7.55977783 3.32614746 -8.25627441 3.44135742 -8.97387695 3.56005859 C-11.18328759 4.03425121 -11.18328759 4.03425121 -13.875 6.0625 C-15.63057102 6.61369969 -17.40427374 7.10867755 -19.1875 7.5625 C-23.14027129 8.59525324 -27.01771147 9.70723646 -30.875 11.0625 C-30.875 11.7225 -30.875 12.3825 -30.875 13.0625 C-32.525 13.3925 -34.175 13.7225 -35.875 14.0625 C-35.25 12.125 -35.25 12.125 -33.875 10.0625 C-30.75 9.3125 -30.75 9.3125 -27.875 9.0625 C-27.875 8.4025 -27.875 7.7425 -27.875 7.0625 C-24.21106121 5.45952678 -20.53721854 3.8943745 -16.8125 2.4375 C-15.89791016 2.07785156 -15.89791016 2.07785156 -14.96484375 1.7109375 C-9.99512442 0.16893113 -5.17475284 -0.0528036 0 0 Z " fill="#44BBD6" transform="translate(1350.875,846.9375)"/>
<path d="M0 0 C0.66 0 1.32 0 2 0 C2 0.99 2 1.98 2 3 C2.99 3.33 3.98 3.66 5 4 C5 6.31 5 8.62 5 11 C4.01 11 3.02 11 2 11 C2 28.82 2 46.64 2 65 C1.67 65 1.34 65 1 65 C0.67 43.55 0.34 22.1 0 0 Z " fill="#20739E" transform="translate(850,1104)"/>
<path d="M0 0 C0.87398437 0.38091797 0.87398437 0.38091797 1.765625 0.76953125 C7.63677643 3.23430708 13.4054148 4.94130002 19.62890625 6.2890625 C20.41136719 6.52367187 21.19382812 6.75828125 22 7 C22.33 7.66 22.66 8.32 23 9 C19.7 9 16.4 9 13 9 C13 8.34 13 7.68 13 7 C12.195625 7.165 11.39125 7.33 10.5625 7.5 C6.34112648 8.09247348 2.25335455 8.08506709 -2 8 C-1.33333333 5.33333333 -0.66666667 2.66666667 0 0 Z " fill="#03ADD5" transform="translate(1320,1034)"/>
<path d="M0 0 C0.66 0 1.32 0 2 0 C2 2.64 2 5.28 2 8 C1.01 8.33 0.02 8.66 -1 9 C-3.04108797 12.00791911 -3.19878036 14.42195344 -3 18 C-2.34 18.33 -1.68 18.66 -1 19 C-2.32 20.65 -3.64 22.3 -5 24 C-5 18.39 -5 12.78 -5 7 C-6.32 6.67 -7.64 6.34 -9 6 C-8.34 5.01 -7.68 4.02 -7 3 C-3.875 2.8125 -3.875 2.8125 -1 3 C-0.67 2.01 -0.34 1.02 0 0 Z " fill="#0E77B2" transform="translate(868,906)"/>
<path d="M0 0 C1.17949219 0.19464844 2.35898438 0.38929687 3.57421875 0.58984375 C4.92966797 0.82380859 4.92966797 0.82380859 6.3125 1.0625 C6.3125 1.3925 6.3125 1.7225 6.3125 2.0625 C1.6925 2.0625 -2.9275 2.0625 -7.6875 2.0625 C-7.6875 14.6025 -7.6875 27.1425 -7.6875 40.0625 C-8.0175 40.0625 -8.3475 40.0625 -8.6875 40.0625 C-9.0175 32.8025 -9.3475 25.5425 -9.6875 18.0625 C-10.0175 18.0625 -10.3475 18.0625 -10.6875 18.0625 C-12.27062359 4.84127865 -12.27062359 4.84127865 -9.6875 0.0625 C-6.00942463 -1.16352512 -3.80506073 -0.64045577 0 0 Z " fill="#2CACCD" transform="translate(1147.6875,1094.9375)"/>
<path d="M0 0 C0.33 0 0.66 0 1 0 C1 12.54 1 25.08 1 38 C5.62 38 10.24 38 15 38 C15 38.33 15 38.66 15 39 C14.33613281 39.04898437 13.67226562 39.09796875 12.98828125 39.1484375 C6.2887764 39.71125812 6.2887764 39.71125812 0 42 C-0.33 40.35 -0.66 38.7 -1 37 C-1.66 37 -2.32 37 -3 37 C-3 35.35 -3 33.7 -3 32 C-2.34 31.67 -1.68 31.34 -1 31 C-0.67 20.77 -0.34 10.54 0 0 Z " fill="#3EB1CE" transform="translate(1139,1021)"/>
<path d="M0 0 C6.6 0.66 13.2 1.32 20 2 C20 2.33 20 2.66 20 3 C-2.44 3 -24.88 3 -48 3 C-48 2.67 -48 2.34 -48 2 C-32.16 2 -16.32 2 0 2 C0 1.34 0 0.68 0 0 Z " fill="#3B6689" transform="translate(749,782)"/>
<path d="M0 0 C0.33 1.32 0.66 2.64 1 4 C1.66 4 2.32 4 3 4 C3.125 10.625 3.125 10.625 2 14 C1.34 14 0.68 14 0 14 C-0.33 14.99 -0.66 15.98 -1 17 C-1.99 16.67 -2.98 16.34 -4 16 C-5.15837626 11.94568308 -4.83691257 9.78187881 -3 6 C-2.34 6 -1.68 6 -1 6 C-0.67 4.02 -0.34 2.04 0 0 Z " fill="#01ACCD" transform="translate(1277,991)"/>
<path d="M0 0 C0.66 0 1.32 0 2 0 C1.77093046 2.08573846 1.51590108 4.16863641 1.25 6.25 C1.11078125 7.41015625 0.9715625 8.5703125 0.828125 9.765625 C-0.10432352 13.40745224 -1.24886811 14.54977316 -4 17 C-5.26784124 20.13350717 -5.26784124 20.13350717 -6 23 C-6.33 23 -6.66 23 -7 23 C-7.125 19.625 -7.125 19.625 -7 16 C-6.34 15.34 -5.68 14.68 -5 14 C-4.31867549 12.33927151 -3.65257873 10.672233 -3 9 C-2.34 8.01 -1.68 7.02 -1 6 C-2.65 6 -4.3 6 -6 6 C-6 5.01 -6 4.02 -6 3 C-4.35 3 -2.7 3 -1 3 C-0.67 2.01 -0.34 1.02 0 0 Z " fill="#07ACD3" transform="translate(1282,885)"/>
<path d="M0 0 C7.425 0.99 7.425 0.99 15 2 C14 4 14 4 12.0625 4.9375 C9.68028507 5.95345922 9.68028507 5.95345922 8 9 C5.375 9.1875 5.375 9.1875 3 9 C2.67 8.01 2.34 7.02 2 6 C2.66 6 3.32 6 4 6 C3.34 5.38125 2.68 4.7625 2 4.125 C0 2 0 2 0 0 Z " fill="#04AAD3" transform="translate(1343,1043)"/>
<path d="M0 0 C0.33 0 0.66 0 1 0 C1.14283563 7.06582816 1.28520451 14.1316656 1.42724609 21.19750977 C1.47564065 23.60213434 1.52414277 26.00675675 1.57275391 28.41137695 C1.64253444 31.86408944 1.71193043 35.31680948 1.78125 38.76953125 C1.80312378 39.84773636 1.82499756 40.92594147 1.84753418 42.03681946 C1.86755493 43.03763046 1.88757568 44.03844147 1.90820312 45.06958008 C1.92596802 45.95116287 1.94373291 46.83274567 1.96203613 47.74104309 C2.03834562 52.28167205 1.58992285 56.5018383 1 61 C0.67 61 0.34 61 0 61 C0 40.87 0 20.74 0 0 Z " fill="#075C9C" transform="translate(759,1045)"/>
<path d="M0 0 C0.66 0.33 1.32 0.66 2 1 C-4.93 7.93 -11.86 14.86 -19 22 C-19 18.43037694 -18.4786708 18.0705928 -16.11328125 15.56640625 C-15.50419922 14.91736328 -14.89511719 14.26832031 -14.26757812 13.59960938 C-13.62240234 12.92736328 -12.97722656 12.25511719 -12.3125 11.5625 C-11.68666016 10.89412109 -11.06082031 10.22574219 -10.41601562 9.53710938 C-7.13072364 6.06605219 -3.83999605 2.87081923 0 0 Z " fill="#232323" transform="translate(567,521)"/>
<path d="M0 0 C0.66 0.33 1.32 0.66 2 1 C-0.2234498 3.42198014 -2.45475769 5.83658623 -4.6875 8.25 C-5.31333984 8.93191406 -5.93917969 9.61382813 -6.58398438 10.31640625 C-9.86664478 13.85686722 -13.10627632 17.1113484 -17 20 C-17.66 19.67 -18.32 19.34 -19 19 C-12.73 12.73 -6.46 6.46 0 0 Z " fill="#232323" transform="translate(1363,1354)"/>
<path d="M0 0 C0.99 0.33 1.98 0.66 3 1 C4.125 5.75 4.125 5.75 3 8 C3.99 8.33 4.98 8.66 6 9 C6 9.66 6 10.32 6 11 C3.69 11.33 1.38 11.66 -1 12 C-1.08159574 7.83861737 -0.98248524 4.0527516 0 0 Z " fill="#04A4D7" transform="translate(1156,1101)"/>
<path d="M0 0 C2.86708013 2.86708013 4.32067135 6.27271842 6.125 9.875 C6.49753906 10.59558594 6.87007812 11.31617188 7.25390625 12.05859375 C7.60582031 12.75855469 7.95773437 13.45851563 8.3203125 14.1796875 C8.64273926 14.81632324 8.96516602 15.45295898 9.29736328 16.10888672 C10 18 10 18 10 22 C10.66 22 11.32 22 12 22 C12 22.66 12 23.32 12 24 C11.01 23.67 10.02 23.34 9 23 C8.6278958 21.67696283 8.29369827 20.34262065 8 19 C7.34 18.67 6.68 18.34 6 18 C5.54296875 16.00390625 5.54296875 16.00390625 5.1875 13.5625 C4.76947323 11.13494452 4.76947323 11.13494452 4 9 C1.52985528 7.32386813 1.52985528 7.32386813 -1 7 C-0.67 4.69 -0.34 2.38 0 0 Z " fill="#60C7DB" transform="translate(1272,977)"/>
<path d="M0 0 C4.65132606 2.08752324 7.55446144 5.32571199 11 9 C11.66257812 9.70382812 12.32515625 10.40765625 13.0078125 11.1328125 C18 16.61007085 18 16.61007085 18 20 C14.99196428 17.04974274 11.9949821 14.08850331 9 11.125 C8.14148437 10.28324219 7.28296875 9.44148437 6.3984375 8.57421875 C5.58632812 7.76855469 4.77421875 6.96289062 3.9375 6.1328125 C2.80634766 5.01737061 2.80634766 5.01737061 1.65234375 3.87939453 C0 2 0 2 0 0 Z " fill="#202020" transform="translate(1349,525)"/>
<path d="M0 0 C0.66 0 1.32 0 2 0 C2.43054687 0.60585938 2.86109375 1.21171875 3.3046875 1.8359375 C5.33510463 4.42776029 7.14321909 5.27754798 10.125 6.625 C14.89868668 8.79737336 14.89868668 8.79737336 16 11 C14.35 11.33 12.7 11.66 11 12 C11 11.01 11 10.02 11 9 C9.9275 8.9175 8.855 8.835 7.75 8.75 C3.70195267 7.94039053 2.36818374 7.31545723 0 4 C0 2.68 0 1.36 0 0 Z " fill="#34B7D7" transform="translate(1304,1023)"/>
<path d="M0 0 C3.15204981 1.39347376 5.26171773 3.02485079 7.671875 5.4765625 C8.33574219 6.146875 8.99960937 6.8171875 9.68359375 7.5078125 C10.36550781 8.20648437 11.04742188 8.90515625 11.75 9.625 C12.44738281 10.33140625 13.14476562 11.0378125 13.86328125 11.765625 C15.58012488 13.50598703 17.29211832 15.25084981 19 17 C15.30655064 17 14.83099037 16.25703735 12.20703125 13.7890625 C11.49482422 13.12132812 10.78261719 12.45359375 10.04882812 11.765625 C9.31083984 11.05921875 8.57285156 10.3528125 7.8125 9.625 C7.06291016 8.92632813 6.31332031 8.22765625 5.54101562 7.5078125 C1.44917341 3.63564153 1.44917341 3.63564153 0 2 C0 1.34 0 0.68 0 0 Z " fill="#202020" transform="translate(553,1359)"/>
<path d="M0 0 C4.33333333 0 8.66666667 0 13 0 C13 0.66 13 1.32 13 2 C15.31 2 17.62 2 20 2 C20 2.33 20 2.66 20 3 C18.08574219 3.07347656 18.08574219 3.07347656 16.1328125 3.1484375 C14.46351928 3.22346191 12.79424954 3.29900988 11.125 3.375 C9.86236328 3.42140625 9.86236328 3.42140625 8.57421875 3.46875 C7.36572266 3.52675781 7.36572266 3.52675781 6.1328125 3.5859375 C5.38918457 3.6173584 4.64555664 3.6487793 3.87939453 3.68115234 C1.75989026 3.85419551 1.75989026 3.85419551 0 6 C0 4.02 0 2.04 0 0 Z " fill="#0D78AC" transform="translate(850,781)"/>
<path d="M0 0 C3.96 0 7.92 0 12 0 C10.02 0.99 10.02 0.99 8 2 C7.01 3.485 7.01 3.485 6 5 C2.375 5.1875 2.375 5.1875 -1 5 C-1.33 4.01 -1.66 3.02 -2 2 C-1.34 1.67 -0.68 1.34 0 1 C0 0.67 0 0.34 0 0 Z " fill="#04A6D0" transform="translate(1140,982)"/>
<path d="M0 0 C0.99 0 1.98 0 3 0 C3 0.99 3 1.98 3 3 C3.99 2.67 4.98 2.34 6 2 C6.66 4.31 7.32 6.62 8 9 C5.525 8.01 5.525 8.01 3 7 C3 6.67 3 6.34 3 6 C0.03 5.505 0.03 5.505 -3 5 C-1.6875 2.5 -1.6875 2.5 0 0 Z " fill="#0C83B8" transform="translate(935,971)"/>
<path d="M0 0 C5.28 0.33 10.56 0.66 16 1 C16 1.66 16 2.32 16 3 C11.71 3 7.42 3 3 3 C3 3.66 3 4.32 3 5 C2.01 5 1.02 5 0 5 C0 3.35 0 1.7 0 0 Z " fill="#239EC1" transform="translate(1138,748)"/>
<path d="M0 0 C1.98 0 3.96 0 6 0 C7 3 7 3 6 6 C4.02 6 2.04 6 0 6 C0 4.02 0 2.04 0 0 Z " fill="#1269A7" transform="translate(760,1099)"/>
<path d="M0 0 C3.59476701 3.49205938 6.92026191 7.04033675 10 11 C10 11.66 10 12.32 10 13 C9.01 13 8.02 13 7 13 C6.67 12.01 6.34 11.02 6 10 C5.175 9.5875 4.35 9.175 3.5 8.75 C1 7 1 7 0.1875 3.3125 C0.125625 2.219375 0.06375 1.12625 0 0 Z " fill="#4BBFD9" transform="translate(1284,1001)"/>
<path d="M0 0 C0.12375 0.639375 0.2475 1.27875 0.375 1.9375 C0.684375 2.9584375 0.684375 2.9584375 1 4 C1.66 4.33 2.32 4.66 3 5 C1.68 7.31 0.36 9.62 -1 12 C-1.66 12 -2.32 12 -3 12 C-3.33 12.99 -3.66 13.98 -4 15 C-5.0326802 12.21176345 -5.04509293 11.1322726 -4.0625 8.25 C-3.711875 7.5075 -3.36125 6.765 -3 6 C-2.34 6 -1.68 6 -1 6 C-0.67 4.02 -0.34 2.04 0 0 Z " fill="#04AADB" transform="translate(1277,991)"/>
<path d="M0 0 C0 0.66 0 1.32 0 2 C-1.65614657 2.38218767 -3.32457024 2.71395102 -5 3 C-5.33 2.67 -5.66 2.34 -6 2 C-7.52519276 2.08937803 -9.04681929 2.24537146 -10.5625 2.4375 C-11.38878906 2.53933594 -12.21507812 2.64117188 -13.06640625 2.74609375 C-13.70449219 2.82988281 -14.34257813 2.91367187 -15 3 C-15 2.34 -15 1.68 -15 1 C-15.99 0.67 -16.98 0.34 -18 0 C-15.75067773 -0.1954625 -13.50049858 -0.38108226 -11.25 -0.5625 C-9.99703125 -0.66691406 -8.7440625 -0.77132812 -7.453125 -0.87890625 C-4.60547636 -0.97876723 -2.65713933 -0.90584295 0 0 Z " fill="#09A6D6" transform="translate(1159,904)"/>
<path d="M0 0 C0.33 0.66 0.66 1.32 1 2 C-0.43257963 4.72872311 -1.81722366 6.81722366 -4 9 C-4.71408334 10.98356483 -5.38617742 12.98315437 -6 15 C-6.33 15 -6.66 15 -7 15 C-7.32644414 10.83783725 -7.40650982 8.63686538 -5.125 5.0625 C-3 3 -3 3 -1 3 C-0.67 2.01 -0.34 1.02 0 0 Z " fill="#4DC1DC" transform="translate(1282,893)"/>
<path d="M0 0 C6.6 0.66 13.2 1.32 20 2 C20 2.33 20 2.66 20 3 C12.41 3 4.82 3 -3 3 C-2.01 2.67 -1.02 2.34 0 2 C0 1.34 0 0.68 0 0 Z " fill="#306894" transform="translate(749,782)"/>
<path d="M0 0 C1.32 0 2.64 0 4 0 C4 0.66 4 1.32 4 2 C3.34 2 2.68 2 2 2 C2 2.66 2 3.32 2 4 C0.2984375 4.680625 0.2984375 4.680625 -1.4375 5.375 C-5.04721692 6.57095806 -5.04721692 6.57095806 -6 9 C-6.66 8.67 -7.32 8.34 -8 8 C-8 7.01 -8 6.02 -8 5 C-6.865625 4.54625 -5.73125 4.0925 -4.5625 3.625 C-0.95278308 2.42904194 -0.95278308 2.42904194 0 0 Z " fill="#0AABD8" transform="translate(1321,852)"/>
<path d="M0 0 C0 0.66 0 1.32 0 2 C-3.01868434 3.50934217 -5.67297229 3.17510672 -9 3 C-9.99 2.34 -10.98 1.68 -12 1 C-7.67265609 -1.22923777 -4.71599818 -0.92470553 0 0 Z " fill="#11ACD8" transform="translate(1366,844)"/>
<path d="M0 0 C1.60585493 0.62064937 3.20962617 1.2466918 4.8125 1.875 C5.70582031 2.22304687 6.59914063 2.57109375 7.51953125 2.9296875 C10 4 10 4 13 6 C8.21521178 6.09764874 3.72314313 5.77112541 -1 5 C-0.67 3.35 -0.34 1.7 0 0 Z " fill="#3BB8D9" transform="translate(1320,1034)"/>
<path d="M0 0 C0.99 0 1.98 0 3 0 C2.79503906 0.66386719 2.59007812 1.32773437 2.37890625 2.01171875 C1.97478516 3.33623047 1.97478516 3.33623047 1.5625 4.6875 C1.29566406 5.55761719 1.02882813 6.42773438 0.75390625 7.32421875 C0.03655471 9.87025921 -0.517541 12.4003423 -1 15 C-1.33 15 -1.66 15 -2 15 C-2 11.37 -2 7.74 -2 4 C-1.34 4 -0.68 4 0 4 C0 2.68 0 1.36 0 0 Z " fill="#39BBD9" transform="translate(1272,909)"/>
<path d="M0 0 C-1.47692308 5.66153846 -1.47692308 5.66153846 -4.125 7.375 C-5.053125 7.684375 -5.053125 7.684375 -6 8 C-6.36458333 3.50347222 -6.36458333 3.50347222 -4.6875 1.1875 C-3 0 -3 0 0 0 Z " fill="#00A8CF" transform="translate(1160,1065)"/>
<path d="M0 0 C0.66 0.66 1.32 1.32 2 2 C1.34 2 0.68 2 0 2 C0 4.64 0 7.28 0 10 C-2.31 9.67 -4.62 9.34 -7 9 C-6.525625 8.54625 -6.05125 8.0925 -5.5625 7.625 C-3.90972192 6.06741796 -3.90972192 6.06741796 -3 4 C-2.34 4 -1.68 4 -1 4 C-0.67 2.68 -0.34 1.36 0 0 Z " fill="#0B83B6" transform="translate(941,1041)"/>
<path d="M0 0 C-2.4715092 2.60158864 -5.12031542 4.85869608 -8 7 C-8.66 7 -9.32 7 -10 7 C-8.07091409 1.3611335 -6.01450566 -0.32510841 0 0 Z " fill="#34B6D8" transform="translate(1315,861)"/>
<path d="M0 0 C1.65 0 3.3 0 5 0 C4.75 2.375 4.75 2.375 4 5 C1.9375 6.3125 1.9375 6.3125 0 7 C0 4.69 0 2.38 0 0 Z " fill="#04A5D0" transform="translate(1155,969)"/>
<path d="M0 0 C1.5625 1.6875 1.5625 1.6875 3 4 C2.6875 6.75 2.6875 6.75 2 9 C1.01 9 0.02 9 -1 9 C-1.33 6.36 -1.66 3.72 -2 1 C-1.34 0.67 -0.68 0.34 0 0 Z " fill="#07A4D5" transform="translate(1158,939)"/>
<path d="M0 0 C1.33855056 0.78281305 2.67073644 1.57651877 4 2.375 C5.11375 3.03628906 5.11375 3.03628906 6.25 3.7109375 C6.8275 4.13632812 7.405 4.56171875 8 5 C8 5.66 8 6.32 8 7 C4.31245243 6.50168276 2.39509338 5.89932357 0 3 C-0.33 3.66 -0.66 4.32 -1 5 C-0.67 3.35 -0.34 1.7 0 0 Z " fill="#38B9DA" transform="translate(1294,1014)"/>
<path d="M0 0 C1.4800841 0.11362262 2.95910074 0.24122908 4.4375 0.375 C5.26121094 0.44460938 6.08492187 0.51421875 6.93359375 0.5859375 C7.95646484 0.79089844 7.95646484 0.79089844 9 1 C9.33 1.66 9.66 2.32 10 3 C6.7 3 3.4 3 0 3 C0 2.01 0 1.02 0 0 Z " fill="#5CC5DF" transform="translate(1333,1040)"/>
<path d="M0 0 C0.66 0 1.32 0 2 0 C2 0.99 2 1.98 2 3 C2.99 3.33 3.98 3.66 5 4 C5 6.31 5 8.62 5 11 C4.34 11 3.68 11 3 11 C2.814375 9.88625 2.814375 9.88625 2.625 8.75 C2.0430105 6.18924619 1.19578604 4.31185302 0 2 C0 1.34 0 0.68 0 0 Z " fill="#1475A7" transform="translate(850,1104)"/>
<path d="M0 0 C7.425 0.99 7.425 0.99 15 2 C15 2.33 15 2.66 15 3 C10.38 3 5.76 3 1 3 C0.67 2.01 0.34 1.02 0 0 Z " fill="#29B6D4" transform="translate(1343,1043)"/>
<path d="M0 0 C-1.52708963 3.43595166 -3.59927045 6.11912454 -6 9 C-5.6875 5.625 -5.6875 5.625 -5 2 C-2 0 -2 0 0 0 Z " fill="#2CB6D9" transform="translate(1289,884)"/>
<path d="M0 0 C2.64 0 5.28 0 8 0 C8 0.99 8 1.98 8 3 C5.69 3 3.38 3 1 3 C0.67 2.01 0.34 1.02 0 0 Z " fill="#05A3D6" transform="translate(1146,841)"/>
<path d="M0 0 C0.33 1.32 0.66 2.64 1 4 C2.65 4.33 4.3 4.66 6 5 C5.67 5.66 5.34 6.32 5 7 C2.4375 7.625 2.4375 7.625 0 8 C0 5.36 0 2.72 0 0 Z " fill="#1269A8" transform="translate(760,1045)"/>
<path d="M0 0 C0.99 0 1.98 0 3 0 C3.26218749 3.14624993 3.24754367 4.61837017 1.5 7.3125 C0.7575 8.1478125 0.7575 8.1478125 0 9 C-0.87890625 2.84765625 -0.87890625 2.84765625 -1 1 C-0.67 0.67 -0.34 0.34 0 0 Z " fill="#01A7D8" transform="translate(1159,1021)"/>
<path d="M0 0 C5.28 0.33 10.56 0.66 16 1 C16 1.33 16 1.66 16 2 C8.08 2.495 8.08 2.495 0 3 C0 2.01 0 1.02 0 0 Z " fill="#0CA6CC" transform="translate(1138,1018)"/>
<path d="M0 0 C6.875 2.75 6.875 2.75 8 5 C6.35 5.33 4.7 5.66 3 6 C3 5.01 3 4.02 3 3 C2.01 2.67 1.02 2.34 0 2 C0 1.34 0 0.68 0 0 Z " fill="#5FC5D7" transform="translate(1312,1029)"/>
<path d="M0 0 C0.99 0.495 0.99 0.495 2 1 C2 1.99 2 2.98 2 4 C2.99 4 3.98 4 5 4 C4.34 5.32 3.68 6.64 3 8 C2.34 7.67 1.68 7.34 1 7 C0.59270772 4.67843403 0.25561323 2.3431213 0 0 Z " fill="#05ACCF" transform="translate(1289,1010)"/>
<path d="M0 0 C1.98 0.495 1.98 0.495 4 1 C4 3 4 3 2.625 4.4375 C2.08875 4.953125 1.5525 5.46875 1 6 C0.34 6.99 -0.32 7.98 -1 9 C-0.67 6.03 -0.34 3.06 0 0 Z " fill="#07A1C4" transform="translate(1138,939)"/>
<path d="M0 0 C2.31 0.33 4.62 0.66 7 1 C6.34 2.32 5.68 3.64 5 5 C3.68 4.34 2.36 3.68 1 3 C1.33 2.34 1.66 1.68 2 1 C1.34 0.67 0.68 0.34 0 0 Z " fill="#0EAFD1" transform="translate(1298,866)"/>
<path d="M0 0 C0.66 0 1.32 0 2 0 C2.33 2.64 2.66 5.28 3 8 C2.01 8 1.02 8 0 8 C-0.79953138 4.71303767 -1.09658936 3.28976808 0 0 Z " fill="#00A6C6" transform="translate(1136,740)"/>
<path d="M0 0 C2.76223278 2.76223278 2.57856291 5.20706617 3 9 C1.68 8.34 0.36 7.68 -1 7 C-0.67 4.69 -0.34 2.38 0 0 Z " fill="#2AB8D9" transform="translate(1272,977)"/>
<path d="M0 0 C1.32 0.66 2.64 1.32 4 2 C4 1.34 4 0.68 4 0 C5.32 0.66 6.64 1.32 8 2 C8 2.33 8 2.66 8 3 C4.37 3 0.74 3 -3 3 C-2.01 2.67 -1.02 2.34 0 2 C0 1.34 0 0.68 0 0 Z " fill="#0C7FB4" transform="translate(912,781)"/>
<path d="M0 0 C0.33 0.66 0.66 1.32 1 2 C1.99 2.33 2.98 2.66 4 3 C3.67 4.32 3.34 5.64 3 7 C2.01 7 1.02 7 0 7 C0 4.69 0 2.38 0 0 Z " fill="#0E77B2" transform="translate(863,967)"/>
<path d="M0 0 C0 0.66 0 1.32 0 2 C-2.31 2.33 -4.62 2.66 -7 3 C-7 2.01 -7 1.02 -7 0 C-3.98968256 -0.93423645 -3.13349732 -1.04449911 0 0 Z " fill="#01A7C8" transform="translate(1162,1110)"/>
<path d="M0 0 C1.32 0.66 2.64 1.32 4 2 C3.01 2.33 2.02 2.66 1 3 C0.67 4.65 0.34 6.3 0 8 C-0.98120464 4.94736336 -0.98120464 3.05263664 0 0 Z " fill="#00ADD6" transform="translate(1308,1036)"/>
</svg>
